<svg class="injected-svg" id="svg-3b916e90-d096-4983-bb9f-9fa2cc944b0c" height="100%" width="100%" viewBox="0 0 540 508" xmlns="http://www.w3.org/2000/svg"><g xmlns="http://www.w3.org/2000/svg" fill="#d68048" id="icon-svg">
	<path transform="translate(188.5, 102.5) scale(0.8,0.8)" d="M 68.681 18.653 C 68.306 19.027, 68 30.275, 68 43.649 L 68 67.965 43.250 68.233 L 18.500 68.500 18.500 100 L 18.500 131.500 43.233 131.767 L 67.965 132.035 68.233 156.767 L 68.500 181.500 100 181.500 L 131.500 181.500 131.767 156.767 L 132.035 132.035 156.767 131.767 L 181.500 131.500 181.500 100 L 181.500 68.500 156.767 68.233 L 132.035 67.965 131.767 43.233 L 131.500 18.500 100.431 18.236 C 83.343 18.091, 69.055 18.278, 68.681 18.653 M 94.727 65 C 93.329 66.100, 91.461 67, 90.578 67 C 88.944 67, 85.011 72.470, 85.004 74.750 C 84.999 76.210, 88.566 80, 89.944 80 C 90.464 80, 92.108 78.951, 93.599 77.668 C 95.595 75.952, 96.345 74.329, 96.443 71.519 C 96.610 66.715, 98.855 65.696, 108.177 66.198 C 113.056 66.460, 115.440 67.088, 117.033 68.529 C 125.556 76.237, 125.360 94.086, 116.682 100.431 C 114.460 102.057, 112.138 102.536, 105.682 102.705 C 98.794 102.885, 98.098 102.768, 101.282 101.968 C 111.697 99.351, 120 91.625, 120 84.550 L 120 82 94.559 82 C 78.273 82, 68.890 82.369, 68.485 83.024 C 65.878 87.243, 74.638 97.935, 82.670 100.338 C 87.416 101.757, 87.454 101.801, 84.851 102.828 C 81.184 104.275, 79 107.761, 79 112.167 C 79 117.371, 82.299 120.962, 87.752 121.694 C 91.537 122.201, 92 122.552, 92 124.912 C 92 126.916, 91.295 127.828, 89.106 128.654 C 85.716 129.933, 82.524 134.317, 83.372 136.527 C 83.863 137.806, 85.722 138.022, 94.232 137.785 L 104.500 137.500 104.353 134.500 C 104.272 132.850, 104.635 130.065, 105.160 128.311 C 106.760 122.968, 103.270 118, 97.918 118 C 96.237 118, 96 117.247, 96 111.906 L 96 105.812 100.934 106.491 C 112.401 108.068, 122.198 103.284, 125.567 94.463 C 129.368 84.511, 125.724 69.465, 118.420 64.951 C 113.790 62.089, 98.387 62.121, 94.727 65 M 84 108 C 80.015 111.985, 82.755 118, 88.557 118 L 92 118 92 112 L 92 106 89 106 C 87.333 106, 85.111 106.889, 84 108 M 96 124.883 C 96 127.026, 96.574 127.917, 98.233 128.351 C 101.175 129.120, 102.404 127.744, 101.608 124.573 C 101.131 122.674, 100.312 122, 98.481 122 C 96.413 122, 96 122.480, 96 124.883" stroke="none" fill-rule="evenodd"></path>
</g><path xmlns="http://www.w3.org/2000/svg" id="SvgjsPath157616488" d="M38.08-40.48C37.12-48.72 32.40-54.88 23.76-55.28L23.68-55.28L21.52-55.20C20.80-55.04 20.08-55.04 19.36-54.96C17.44-54.72 15.52-54.32 2.72-51.68C1.92-51.52 1.52-51.04 1.44-50.24L-0.32-12.40L-0.24-12.32C-0.16-12.32-0.08-12.24-0.08-12.16L-0.32-12.16L-0.48-7.92L-0.16-8.16L0.24-8.16L0.48-8C0.16-7.76 0-7.60-0.32-7.52L-0.48-7.68L-0.80-1.68C-0.80-0.72-0.16 0 0.80 0L10.64 0C11.68 0 12.24-0.48 12.24-1.60L12.72-15.84L15.20-16.16C15.12-16.16 15.12-16.16 15.12-16.24C15.12-16.40 15.28-16.48 15.52-16.48C15.60-16.48 15.68-16.48 15.68-16.32L15.76-16.32C16-16.32 16.16-16.40 16.40-16.40C16.64-16.48 16.88-16.48 17.12-16.56C18.48-16.80 19.68-17.04 20.88-17.44C23.84-18.24 26.80-19.36 29.44-20.80L29.52-20.80C31.36-21.84 32.96-23.20 34.32-25.04L34.32-30.64C34.40-30.56 34.40-30.48 34.40-30.24C34.32-30.08 34.40-29.92 34.72-29.84C34.48-29.52 34.40-29.28 34.40-28.96C34.48-28.72 34.48-28.48 34.48-28.16L34.56-28.16C34.48-28.16 34.40-28 34.40-27.76C34.40-27.52 34.40-27.28 34.48-26.96C34.56-26.64 34.56-26.32 34.56-26C34.56-25.60 34.48-25.28 34.32-25.04C35.12-26.08 35.84-27.28 36.48-28.56C38.08-32.08 38.64-36 38.08-40.48ZM4.08-46.96L4.24-46.96L4.24-46.72L4.08-46.72ZM13.36-28.64L14.16-41.44L20.48-42.72C24.16-43.44 25.60-38.72 25.12-35.60C24.80-34.24 24.16-33.12 23.12-32.24C21.44-30.80 19.20-29.92 17.20-29.28C16.32-29.04 14.08-28.72 13.36-28.64ZM30.08-42.16L29.76-42.16L29.76-42.32L30.08-42.32ZM25.44-41.68L26-41.52C25.92-41.52 25.84-41.44 25.84-41.44C25.84-41.28 25.60-41.20 25.44-41.44C25.36-41.44 25.36-41.60 25.44-41.68ZM3.12-41.28L3.28-41.28L3.28-40.88L3.12-40.88ZM27.60-41.12L27.84-41.12L27.84-40.88L27.60-40.88ZM28.32-38.24C28.08-38.08 27.84-38 27.68-38L27.68-38.96C28.16-38.72 28.32-38.40 28.32-38.24ZM28.48-36.64L27.68-36.80C27.84-36.96 28-37.04 28.16-37.12L28.24-37.12C28.24-37.20 28.32-37.20 28.32-37.20C28.32-37.20 28.48-37.28 28.64-37.44C28.72-37.28 28.80-37.12 28.80-37.04C28.80-36.96 28.64-36.80 28.48-36.64ZM29.44-36.24C29.20-36.24 29.12-36.40 29.12-36.56L29.28-36.64L29.44-36.56C29.52-36.56 29.60-36.32 29.76-36ZM26.32-35.20L26.64-35.20C26.72-35.20 26.72-35.12 26.80-35.12C26.88-35.04 26.88-34.88 26.88-34.80L26.32-34.80ZM26.16-33.92C26.08-34 26.16-34.08 26.32-34.24L26.64-34.48C26.72-34.40 26.88-34.40 27.04-34.40C27.04-34.16 26.88-34 26.72-33.84ZM27.68-34L27.68-34.40L28.32-34.40C28.32-34.16 28.08-34 27.68-34ZM34.56-32.96C34.40-32.88 34.40-32.80 34.40-32.80C34.16-32.80 34-32.88 34-32.88C33.76-32.96 33.60-32.96 33.52-33.04C33.68-33.04 33.76-33.12 33.68-33.28L34.24-33.28C34.32-33.36 34.32-33.44 34.32-33.60C34.24-33.68 34.24-33.84 34.32-33.92C34.56-33.60 34.64-33.36 34.64-33.20C34.64-33.12 34.64-33.04 34.56-32.96ZM27.20-33.28L27.36-33.36C27.44-33.44 27.60-33.44 27.84-33.44C27.84-33.36 28-33.28 28.32-33.04C28-33.04 27.60-33.12 27.20-33.28ZM27.84-32.48L27.36-32.80L27.68-32.96L28-32.64ZM34.48-30.80L34.24-30.80L34.24-32.64L34.48-32.64ZM25.28-31.04C25.60-30.96 25.92-30.72 26.16-30.40ZM27.60-27.20L26.80-27.20L26.80-27.36L27.60-27.36ZM24.88-26.72C25.12-26.72 25.44-26.56 25.44-26.32L24.72-26.24ZM23.92-26.48L23.92-26.32L23.44-26.32L23.44-26.48ZM5.36-25.12C5.20-25.28 4.88-25.44 4.48-25.52C4.56-25.52 4.64-25.52 4.64-25.60C4.80-25.60 5.04-25.76 5.12-25.84C5.12-25.76 5.20-25.60 5.36-25.52C5.52-25.44 5.68-25.28 5.76-25.12ZM24.24-25.20C24.16-25.04 24-24.96 23.76-24.96C23.60-24.96 23.44-25.04 23.36-25.12L23.28-25.12C23.20-25.12 23.20-25.20 23.20-25.36C23.20-25.44 23.20-25.52 23.36-25.60L23.44-25.60C23.44-25.68 23.52-25.68 23.60-25.76L24.24-25.60ZM3.92-25.60L4.32-25.60C4.32-25.52 4.32-25.44 4.24-25.36L4.08-25.12C4-25.28 3.92-25.36 3.92-25.44ZM15.60-25.04L15.60-25.44L15.84-25.44L15.84-25.04ZM4.16-24.24C4.24-24.24 4.16-24.32 3.92-24.40C4-24.48 4.16-24.56 4.32-24.72C4.48-24.80 4.64-24.88 4.80-24.88C4.96-24.88 5.04-24.80 5.20-24.72C5.36-24.56 5.52-24.48 5.60-24.40C5.44-24.40 5.28-24.32 5.04-24.24C4.80-24.16 4.64-24.16 4.48-24.16C4.40-24.16 4.32-24.16 4.16-24.24ZM25.52-24.32L25.20-24.40L25.36-24.80L25.68-24.64ZM20.16-23.60C20.24-23.52 20.32-23.44 20.32-23.36C20.32-23.28 20.24-23.20 20.24-23.12C20.40-23.12 20.80-22.96 20.96-22.80C20.96-22.80 20.80-22.72 20.72-22.72L20.24-22.72L20.24-23.12C20-23.12 19.84-23.20 19.68-23.20C19.68-23.36 19.92-23.60 20.16-23.60ZM22.48-23.12L22.96-23.44C22.96-23.44 22.96-23.36 23.04-23.36L23.04-23.20C23.12-23.20 23.12-23.20 23.12-23.12ZM4.08-22.72L3.84-23.36L4-23.36L4.24-22.72ZM21.68-22.56C21.44-22.64 21.28-22.88 21.12-23.20L21.68-23.20C21.84-23.04 21.84-22.72 21.68-22.56ZM4-22.24L3.84-22.32L4.08-22.56L4.24-22.56ZM16.56-22L16.56-22.56L17.20-22.08ZM6.56-22.08L6.08-22.08L6.08-22.48L6.56-22.48ZM20.96-22.16L21.12-21.52L21.44-21.52L21.76-21.60L21.84-21.68L21.92-21.68C21.92-21.60 21.92-21.60 22-21.52L22.08-21.44L22.08-21.28L20.88-21.52L20.24-21.52C20.40-21.76 20.64-22 20.96-22.16ZM22.64-20.88C22.56-20.88 22.56-20.80 22.48-20.80L22.16-20.80C22.08-20.96 22.08-21.20 22.24-21.44C22.48-21.28 22.64-21.12 22.64-20.88ZM20.64-20L20.64-20.80C20.72-20.88 20.80-20.88 20.80-20.88C20.80-20.88 20.80-20.96 20.88-20.96L20.96-20.96C21.04-20.96 21.04-21.04 21.12-21.04C21.20-20.96 21.28-20.80 21.36-20.80C21.44-20.64 21.44-20.56 21.44-20.48C21.44-20.32 21.28-20.16 21.04-19.84C20.96-19.92 20.80-20 20.64-20ZM2.96-20.72L2.96-20.96C3.04-20.88 3.04-20.80 3.20-20.72C3.28-20.64 3.28-20.56 3.28-20.56L2.88-20.56C2.88-20.64 2.88-20.64 2.96-20.72ZM23.76-20.16L23.12-20L23.12-20.24L23.76-20.40ZM15.52-19.12L15.12-19.36C15.12-19.52 15.44-19.84 15.52-19.92L16-19.52ZM21.68-19.60C21.68-19.84 21.92-19.92 22.32-19.92L22.32-19.68C22.32-19.52 22.32-19.44 22.24-19.36L22.08-19.36C21.84-19.36 21.68-19.44 21.68-19.60ZM4.88-19.52L4.88-19.68L5.36-19.84L5.44-19.68ZM22.64-18.80L22.24-18.80C22.24-19.04 22.40-19.12 22.64-19.20C22.72-19.12 22.72-18.96 22.64-18.80ZM21.28-18.64C21.28-18.80 21.44-18.96 21.68-18.96C21.84-18.88 21.92-18.72 21.92-18.64ZM3.68-18L3.52-18L3.52-18.48L3.68-18.48ZM15.36-17.28L14.88-17.28L14.88-17.60L15.36-17.60ZM3.60-1.52C3.20-1.60 2.80-1.68 2.56-1.68C2.08-1.68 1.68-1.76 1.44-1.84C1.04-2.24 0.96-3.84 0.96-4.08C0.96-4.16 1.04-4.32 1.12-4.40C1.20-4.56 1.20-4.64 1.20-4.80C1.28-5.28 1.28-5.76 1.44-6.32C1.52-6.72 1.52-7.20 1.52-7.84L1.52-8.08C1.52-8.08 1.60-8.24 1.84-8.48C1.92-8.64 2-8.72 2.16-8.80C2.08-9.28 1.92-9.76 2.24-10.56C2.32-10.56 2.40-10.72 2.32-10.96C2.16-11.20 2.32-11.76 2.48-12.16C2.56-12.40 2.48-12.56 2.32-12.80L2.40-12.80C2.48-12.80 2.48-12.80 2.56-12.88C2.80-13.04 2.64-13.12 2.64-13.20C2.56-13.28 2.56-13.36 2.56-13.44C2.56-13.52 2.56-13.60 2.72-13.68C2.72-13.76 2.80-13.76 2.80-13.76C2.88-13.84 2.88-13.92 2.96-13.92C3.04-14 3.04-14.24 2.96-14.56C2.88-14.72 2.88-14.96 3.20-15.04C3.28-15.12 3.20-15.20 3.12-15.28C3.04-15.36 3.04-15.44 3.04-15.52C3.04-15.76 3.20-16.08 3.28-16.48C3.36-16.80 3.52-17.12 3.60-17.52ZM0.24-14.96L0.72-14.96L0.72-14.72L0.24-14.72ZM0.72-13.36C0.56-13.20 0.40-13.12 0.24-13.12L0-13.36C0-13.60 0.48-13.60 0.72-13.36ZM0.64-12.40C0.64-12.40 0.48-12.40 0.40-12.32L0-12.56C0.16-12.64 0.56-12.64 0.80-12.56C0.80-12.48 0.72-12.40 0.64-12.40ZM0.08-11.76C0.16-11.84 0.16-11.92 0.16-12C0.16-12.16 0.24-12.24 0.24-12.24C0.24-12.08 0.40-11.92 0.64-11.76ZM7.92-10.40C7.84-10.56 7.76-10.80 7.76-11.04L7.92-11.28ZM0.24-9.92L-0.16-9.92L-0.16-10.16L0.24-10.16ZM7.84-7.44C7.52-8 7.52-8 7.52-8.48C7.52-8.56 7.60-8.64 7.68-8.56C7.76-8.56 7.76-8.64 7.60-8.96C7.68-8.96 7.68-9.04 7.68-9.12C7.68-9.12 7.68-9.28 7.76-9.36L7.92-10.16ZM-0.48-6.64L-0.48-6.72L-0.24-6.80L-0.16-6.72ZM10.64-0.16L10.56-0.40L10.72-0.40L10.80-0.16ZM83.28-55.52C82.88-55.84 82.56-56 82.08-56L71.28-56C70.24-56 69.76-55.52 69.68-54.48L68.56-35.36L61.12-35.04C61.28-35.04 61.44-34.96 61.52-34.96C61.52-34.96 61.44-34.64 61.20-34.64C60.96-34.64 60.80-34.72 60.80-34.80L60.64-35.04L57.52-34.96L58.80-54.08C58.88-54.96 58.16-55.76 57.12-55.76L46.88-55.52C45.84-55.52 45.36-54.96 45.28-54L41.76-1.76C41.76-0.72 42.40 0 43.44 0L55.20-0.24C56.32-0.24 56.80-0.80 56.80-1.84L57.12-20.88C58.88-21.52 60.72-22.16 62.64-22.64C63.04-22.72 63.44-22.80 63.84-22.80C64.16-22.88 64.56-22.96 64.96-22.96L66.40-23.20C66.88-23.28 67.36-23.28 67.92-23.36L67.04-6.56C67.20-6.40 67.36-6.40 67.36-6.24C67.20-6.16 67.12-6.08 67.04-6.08L66.96-3.84L67.20-3.84L67.20-3.60C67.20-3.52 67.04-3.44 66.88-3.36L66.88-2.40C66.88-1.44 67.60-0.80 68.48-0.80L80.32-0.80C81.44-0.80 81.92-1.28 81.92-2.40C81.92-10.40 81.92-18.56 82.16-26.72C82.40-35.92 83.04-45.12 83.68-54.24C83.76-54.72 83.60-55.12 83.28-55.52ZM56.72-52.16C56.64-52.16 56.48-52.16 56.40-52.24L56.16-52.40C54.88-52.40 54-52.48 53.44-52.48C52.88-52.48 52.64-52.56 52.56-52.56C52.48-52.56 52.24-52.48 52-52.48L51.44-52.32C50.96-52.32 50.48-52.48 50.08-52.64C50.40-52.72 50.56-52.80 50.72-52.72C50.88-52.72 51.04-52.88 51.28-53.12L51.92-53.12L51.92-52.88C51.92-52.80 52-52.80 52.16-52.80L52.64-52.80C52.88-52.80 53.20-52.80 53.44-52.88L53.92-52.88C54.16-52.88 54.48-52.96 54.64-52.96L54.80-52.96C54.80-52.96 56-52.80 56.32-52.80C56.64-52.64 56.80-52.56 56.96-52.40ZM48.56-51.36C48.32-51.36 48.16-51.44 48.08-51.60L48.08-52.40C48.16-52.40 48.24-52.48 48.32-52.48C48.48-52.48 48.64-52.56 48.80-52.56L48.80-52.32C48.80-52.32 48.72-52.24 48.72-52.16C48.72-52 48.80-52 48.88-51.92C48.96-51.84 49.12-51.84 49.12-51.68C48.80-51.52 48.64-51.36 48.56-51.36ZM49.28-50.24L49.52-50.24L49.52-49.84L49.28-49.84ZM71.84-49.60C71.84-49.52 71.92-49.52 72-49.44L71.60-49.12C71.52-49.20 71.28-49.44 71.28-49.60ZM75.92-49.20L76.16-49.20L76.16-48.88L75.92-48.88ZM74.40-48L74.64-48L74.64-47.84L74.40-47.84ZM74-46.64L74.16-46.64L74.16-46.32L74-46.32ZM50.72-45.36L50.88-45.52L50.96-45.52L50.88-45.28ZM55.36-43.84L55.20-43.84L54.40-44.16L54.40-44.64L54.80-44.88L55.12-44.88C55.20-44.80 55.20-44.72 55.20-44.56C55.12-44.48 55.12-44.32 55.20-44.24C55.36-44.16 55.44-44 55.44-43.92ZM72.16-44.72L71.60-44.72L71.60-44.88L72.16-44.88ZM72.64-43.84L72.64-43.68L72-43.68L72-43.84ZM76.32-39.28L76.72-38.88C76.64-38.88 76.48-39.04 76.24-39.20C76.08-39.28 75.92-39.44 75.92-39.52ZM62.88-33.92C62.80-33.84 62.80-33.76 62.80-33.76C62.88-33.68 62.72-33.76 62.40-33.92C62.24-34 62.16-34.08 62.16-34.16L62.16-34.32C62.24-34.24 62.24-34.32 62.32-34.40C62.48-34.40 62.72-34.32 62.96-34.08C62.96-34.08 62.88-34 62.88-33.92ZM64.96-33.92L65.12-33.76L64.96-33.76L64.80-33.84ZM60.88-32.80C60.88-32.88 60.96-33.04 61.12-33.12L61.60-33.12C61.44-32.80 61.20-32.72 60.88-32.80ZM63.36-32.72L63.44-32.80L63.44-32.88L64.08-32.88L64.16-32.80C64.16-32.72 64.24-32.72 64.24-32.64L64-32.40C63.84-32.40 63.68-32.56 63.36-32.72ZM62.48-31.52C62.40-31.44 62.32-31.44 62.32-31.36L62.08-31.76C62-32.16 61.92-32.16 62.24-32.24C62.64-32.40 62.80-32.40 62.80-32.40C62.80-32.32 62.80-32.32 62.88-32.32C62.88-32.24 62.96-32.16 62.96-32.08C62.96-31.92 62.64-31.68 62.48-31.52ZM61.44-32.08L61.04-32.08L61.04-32.24L61.44-32.24ZM67.76-31.52C67.68-31.36 67.36-31.28 66.72-31.20C66.56-31.28 66.56-31.36 66.56-31.60C66.56-31.76 67.12-32.08 67.20-32.16C67.36-32 67.52-31.92 67.68-31.92C67.84-31.92 68-32 68.16-32.16C68.16-32.08 68.32-32.08 68.48-32.08C68-31.84 67.84-31.60 67.76-31.52ZM70.08-31.76L69.84-31.52C69.84-31.52 69.76-31.52 69.76-31.60C69.76-31.60 69.68-31.60 69.68-31.76ZM61.04-31.28L60.80-31.52L60.88-31.52C60.96-31.52 60.96-31.60 61.04-31.60C61.04-31.60 61.12-31.52 61.12-31.44C61.04-31.44 61.04-31.36 61.04-31.28ZM66-29.20C65.76-29.36 65.44-29.60 65.04-29.68C64.64-29.84 64.48-30 64.40-30.16L63.92-30.24C63.92-30.40 64.08-30.56 64.32-30.56L64.40-30.64L64.48-30.64C64.56-30.72 64.64-30.80 64.72-30.80L65.12-30.80L65.12-30.72C65.28-30.72 65.68-30.72 65.68-31.20C65.68-30.96 66-30.72 66.40-30.72C66.40-30.72 66.48-30.80 66.56-30.80L67.04-30.80C66.88-30.72 66.56-30.24 66.56-30.08C66.48-30.32 66.32-30.40 66.16-30.40C65.92-30.40 65.68-30.32 65.44-30.16C65.60-30 65.76-29.92 65.92-29.92C66.08-29.92 66.08-29.92 66.08-30L66.24-30C66.56-30 66.80-29.84 67.04-29.52L67.04-29.20ZM68.64-31.04L68.64-30.96L68.16-31.12L68.32-31.20ZM60.56-30.24C60.56-30.32 60.64-30.40 60.72-30.40L60.96-30.24ZM68.96-30.08C69.20-30.08 69.36-30 69.44-29.84L68.80-29.84ZM71.60-29.52C71.52-29.60 71.44-29.60 71.28-29.68L71.44-30.08C71.84-30.08 72-30 72.16-30L72.40-30C72.48-29.92 72.56-29.92 72.64-29.92L72.80-29.76C72.72-29.68 72.64-29.68 72.64-29.68C72.56-29.60 72.48-29.60 72.40-29.60C72.24-29.52 72.08-29.52 71.92-29.52ZM61.68-29.12L61.52-29.12L61.52-29.36L61.68-29.36ZM69.20-28.96L69.20-29.12L69.60-29.12L69.60-28.96ZM65.68-28.48L65.52-28.48L65.52-28.72L65.68-28.72ZM67.52-27.20C67.36-27.04 67.28-26.96 67.12-26.96L66.80-27.04C66.72-27.04 66.72-27.12 66.64-27.12C66.64-27.12 66.56-27.12 66.56-27.20L66.64-27.60C66.88-27.52 67.12-27.44 67.28-27.44L67.84-27.44C67.76-27.44 67.68-27.36 67.52-27.20ZM68.80-27.04C68.96-27.04 68.80-27.04 68.48-27.20L68.64-27.44L69.36-27.44L69.36-27.04C69.36-27.04 69.28-26.96 69.12-26.96ZM73.76-26.64L73.84-26.72L74.64-26.72C74.72-26.56 74.80-26.48 74.88-26.48L74.64-26.24L73.76-26.32ZM76.32-25.28C76.24-25.28 76.24-25.36 76.24-25.52C76.24-25.68 76.32-25.76 76.56-25.76C76.56-25.68 76.64-25.68 76.64-25.60C76.64-25.60 76.72-25.52 76.80-25.52C76.48-25.12 76.48-25.20 76.32-25.28ZM70.96-25.52C70.88-25.44 70.88-25.28 70.72-25.20L70.56-25.60C70.72-25.60 70.88-25.60 70.96-25.52ZM80.80-23.12C80.56-23.04 80.24-23.20 80.24-23.36L80.24-24.80L80.80-24.80ZM74.16-23.04L74.08-22.72L73.92-22.72L74-23.04ZM52.16-22.32L52.56-22.32C52.80-22.32 52.96-22.32 53.20-22.40L53.20-22.32L53.28-22.24L53.28-22.16C53.20-22.16 53.04-22.24 52.80-22.24C52.56-22.24 52.32-22.32 52.16-22.32ZM53.52-21.76L53.52-22.08L53.68-22.08L53.76-22.16C53.76-22.16 53.84-22.24 53.92-22.24C54.08-22.24 54.24-22.24 54.32-22.16L54.32-21.92C54.24-21.84 54-21.76 53.68-21.76ZM49.28-21.60L50.56-21.92C50.56-21.92 50.56-21.84 50.72-21.76C50.88-21.68 50.88-21.60 50.88-21.44C50.88-21.28 50.80-21.12 50.56-20.96C50.40-20.88 50.24-20.80 50.16-20.72C50.08-20.64 50-20.64 49.92-20.64C49.84-20.72 49.76-20.96 49.60-21.12C49.52-21.28 49.44-21.44 49.28-21.60ZM54.48-21.28L54.56-21.28L54.80-21.20L54.64-21.12ZM73.04-19.28L72.96-19.20L72.56-19.20L72.40-19.68L72.80-19.68C72.80-19.68 72.88-19.68 73.04-19.52C73.12-19.44 73.20-19.36 73.20-19.28ZM55.04-18.64L54.64-18.64L54.64-18.88L55.28-18.88ZM73.76-17.52L74-17.52C74.08-17.44 74.16-17.28 74.16-17.20L74.16-16.96L73.76-16.96ZM53.60-17.20C53.76-17.20 54-17.04 54-16.96C53.68-16.80 53.52-16.72 53.44-16.64L53.04-16.64C53.12-16.80 53.28-16.96 53.60-17.20ZM68.48-16.48C68.48-16.64 68.64-16.72 68.80-16.80L69.12-16.64L69.12-16.56C69.12-16.48 69.12-16.48 68.96-16.48ZM74.72-16C74.80-16.24 74.96-16.32 75.12-16.32C75.12-16.24 74.96-16 74.72-16ZM46.40-14.24L46.56-14.24L46.56-14L46.40-14ZM53.84-12.96C53.84-12.96 53.84-13.12 53.76-13.28C53.76-13.36 53.68-13.44 53.68-13.52C53.68-13.68 53.76-13.76 53.76-13.76C53.84-13.76 53.84-13.76 53.92-13.84C54.24-13.76 54.32-13.60 54.32-13.44C54.32-13.28 54.16-13.12 53.84-12.96ZM68.32-13.36C68.32-13.44 68.48-13.52 68.64-13.60L68.96-13.60L68.96-13.36C68.88-13.36 68.80-13.36 68.72-13.28C68.64-13.28 68.48-13.28 68.32-13.36ZM46.56-13.36L46.40-13.44L46.56-13.52L46.72-13.44ZM75.68-13.28L75.76-13.28C75.76-13.36 75.76-13.36 75.84-13.36L75.92-13.28C75.92-13.28 75.92-13.20 76-13.20L76-13.12L75.68-12.96C75.68-13.04 75.68-13.04 75.60-13.12C75.52-13.20 75.52-13.20 75.68-13.28ZM75.12-11.84C74.88-11.84 74.80-11.84 74.72-11.76L74.72-12C74.64-12.16 74.64-12.32 74.64-12.64C74.72-12.64 74.80-12.56 74.88-12.48L75.12-12.24ZM48.64-12.08C48.56-12.16 48.48-12.16 48.32-12.16C48.24-12.16 48.24-12.24 48.24-12.40L48.64-12.40C48.72-12.32 48.80-12.32 48.80-12.32C48.80-12.16 48.80-12.08 48.64-12.08ZM53.76-11.92L53.60-11.92C53.52-11.92 53.44-11.92 53.44-12C53.60-12.08 53.60-12.16 53.60-12.24C53.68-12.24 53.68-12.16 53.76-12.08C53.84-12 53.84-11.92 53.76-11.92ZM78.40-11.20C78.24-11.28 78.08-11.28 77.84-11.28L77.52-11.28C77.52-11.20 77.44-11.20 77.28-11.20C77.12-11.36 77.12-11.52 77.04-11.68C77.04-11.76 76.96-11.92 76.88-12.16C77.12-12.16 77.28-12.24 77.44-12.16L77.68-12.16C77.60-12.16 77.60-12.08 77.60-12.08L77.52-12C77.44-11.92 77.44-11.84 77.44-11.76L77.68-11.68L77.76-11.68C77.76-11.76 77.84-11.76 77.84-11.76C78-11.84 78.08-11.92 78.16-11.92C78.24-11.92 78.32-11.84 78.40-11.76C78.40-11.68 78.48-11.68 78.56-11.60ZM51.28-11.52C51.20-11.52 51.04-11.52 51.04-11.60C50.88-11.60 50.80-11.68 50.72-11.68C50.80-12 50.96-12.16 51.28-12.16C51.44-12.16 51.52-12.08 51.60-12.08C51.60-12 51.68-12 51.76-12C51.92-12 52.08-12 52.08-12.08C52.16-12.16 52.24-12.16 52.24-12.16C52-11.84 51.52-11.52 51.28-11.52ZM75.68-11.68C75.68-11.84 75.84-11.92 76.08-12L76.16-11.68L76.16-11.52ZM75.04-10.72L74.88-10.56L74.72-10.56C74.56-10.56 74.48-10.48 74.40-10.48C74.32-10.40 74.24-10.40 74.16-10.40C74-10.40 73.92-10.48 73.84-10.56C73.76-10.56 73.76-10.72 73.60-10.88L74.08-10.88C74.24-10.96 74.40-10.88 74.48-10.80C74.56-10.80 74.64-10.96 74.72-11.20L75.04-10.96ZM54.32-10.96L54.48-11.12L54.56-11.04C54.56-11.04 54.56-10.96 54.64-10.96ZM71.12-10.64L70.96-10.72L71.12-10.80L71.28-10.72ZM50.80-9.52L50.08-9.52C50.08-9.60 50-9.60 50-9.60C49.92-9.60 49.92-9.68 49.92-9.76C49.92-9.92 50.08-10.08 50.24-10.16C50.40-10.08 50.56-10.08 50.72-10.08C50.88-10 51.04-9.92 51.04-9.76C51.04-9.68 50.96-9.60 50.80-9.52ZM76-9.60C76.08-9.52 76.24-9.44 76.32-9.44C76.48-9.44 76.56-9.44 76.72-9.28C76.64-9.28 76.64-9.20 76.64-9.12C76.56-9.04 76.48-9.04 76.32-9.04C76.16-9.04 75.92-9.12 75.68-9.28ZM46.40-9.28L46.56-9.28L46.56-8.88L46.40-8.88ZM56-8.88L55.60-8.88L55.60-9.04L56-9.04ZM72.64-8.96C72.72-8.96 72.80-8.88 72.96-8.80C72.96-8.72 73.04-8.64 73.20-8.56C72.80-8.56 72.64-8.64 72.64-8.96ZM73.92-7.60C73.84-7.84 74.08-8.32 74.08-8.40C74.08-8.32 74.08-8.16 74.16-8.08C74.24-7.84 74.24-7.68 74.32-7.60ZM68.16-8.16L68.24-8.24L68.32-8.24C68.48-8.24 68.64-8.16 68.64-8.08C68.48-8 68.40-8 68.32-8L68.24-8L68.24-8.08ZM45.44-7.60C45.28-7.52 45.20-7.52 45.20-7.52C44.80-7.52 44.48-7.60 44.32-7.84C44.32-8 44.40-8.08 44.56-8.08C44.88-8.08 45.12-8 45.44-7.92ZM77.04-6.56C76.88-6.48 76.80-6.32 76.88-6.16C76.80-6.16 76.72-6.16 76.72-6.08L76.56-6.08C76.48-6.24 76.40-6.32 76.48-6.40C76.48-6.48 76.32-6.48 76.16-6.48C76.16-6.56 76.32-6.72 76.64-6.88L76.88-7.04C76.96-7.04 77.04-7.12 77.12-7.20L77.28-6.88C77.28-6.72 77.20-6.64 77.04-6.56ZM46.64-6C46.56-5.92 46.56-5.84 46.56-5.76C46.48-5.60 46.48-5.52 46.48-5.36L46.48-6.24L46.72-6.24C46.64-6.08 46.64-6.08 46.64-6ZM70.48-5.92L70.32-5.76C70.24-5.76 69.92-5.76 70.08-6ZM75.92-4.80C75.84-4.80 75.76-4.80 75.68-4.96C75.68-5.04 75.76-5.12 75.84-5.12L76.24-5.12C76.24-5.04 76.32-4.96 76.40-4.96L76.16-4.72C76-4.80 75.92-4.80 75.92-4.80ZM77.92-4.48L77.76-4.48L77.76-4.88L77.92-4.88ZM67.84-4.16C67.68-4.16 67.52-4.40 67.84-4.56C68-4.48 68.16-4.48 68.16-4.48C68.32-4.48 68.48-4.40 68.64-4.32ZM68.64-3.04C68.48-3.20 68.64-3.84 68.96-4C69.20-3.92 69.36-3.84 69.44-3.84C69.60-3.84 69.60-3.92 69.76-3.92C69.84-4 69.92-4 70-4L70.08-4L70.08-3.84C69.84-3.60 69.60-3.44 69.36-3.36C69.12-3.36 68.88-3.20 68.64-3.04ZM75.20-2.72L75.20-2.96L75.44-2.96C75.44-2.88 75.52-2.88 75.68-2.80C75.44-2.72 75.28-2.72 75.20-2.72ZM77.28-2.40C77.12-2.32 76.88-2.24 76.48-2.16L76.40-2.24C76.40-2.32 76.32-2.40 76.32-2.40L76.32-2.64C76.32-2.72 76.40-2.72 76.40-2.72C76.40-2.80 76.48-2.80 76.56-2.80C76.64-2.80 76.80-2.80 76.88-2.72C77.04-2.64 77.12-2.56 77.28-2.56ZM70.72-1.84L70.40-1.84C70.08-1.84 69.68-2.16 69.68-2.32C69.68-2.40 69.76-2.56 69.92-2.72C70.24-2.40 70.64-2.24 71.04-2.24C70.88-2 70.80-1.84 70.72-1.84ZM131.44-1.92L125.44-35.44C124.72-39.28 123.68-43.60 123.52-44.24C123.04-46 122.48-48 121.84-49.76C120.64-52.48 118.80-55.04 115.68-55.28C114-55.44 112.40-55.44 111.04-55.20C109.20-54.96 107.44-54.56 105.68-54.24C105.12-54.08 104.72-53.76 104.48-53.28C101.92-47.28 99.36-41.20 96.96-35.12C95.20-30.64 93.52-26.08 92.08-21.44C90.16-15.20 88.24-8.80 86.56-2.56C86.40-1.44 87.04-0.48 88.08-0.48L99.92-0.24C100.72-0.24 101.28-0.64 101.52-1.44L103.28-8.80L115.36-11.20L116.16-1.44C116.24-0.48 116.80 0 117.76 0L129.84 0C130.88 0 131.60-0.88 131.44-1.92ZM106.08-52.32L106.40-52.32L106.40-51.84L106.08-51.84ZM115.84-50.40L116.08-50.40L116.08-49.76L115.84-49.76ZM115.20-49.12C115.20-49.04 115.36-49.04 115.60-49.04C115.60-48.72 115.52-48.56 115.44-48.40L115.20-48.64ZM106.56-48.64C106.32-48.24 106.16-47.92 106.16-47.68L106.16-48.72C106.16-48.72 106.24-48.64 106.32-48.64ZM116.72-48.48C116.56-48.32 116.48-48.24 116.48-48.16L116.16-48.16C116.16-48.32 116.16-48.32 116.08-48.40L116.08-48.72L116.96-48.64C116.88-48.64 116.80-48.56 116.72-48.48ZM115.92-48.64L116.08-48.32L116.08-48.16L115.92-48.40ZM117.60-47.76C117.84-47.76 118.08-47.84 118.32-47.92L118.16-47.68C118.16-47.44 118.32-47.36 118.56-47.20C118.40-47.12 118.32-47.04 118.24-47.04L117.20-47.04L117.04-47.20C117.20-47.60 117.36-47.76 117.60-47.76ZM117.36-45.60C117.60-45.60 117.84-45.52 118.08-45.36C118-45.28 118-45.28 118-45.20C118-45.12 117.92-45.04 117.84-44.96C117.68-45.04 117.60-45.12 117.44-45.12C117.28-45.12 117.12-45.20 117.04-45.28C117.04-45.52 117.20-45.60 117.36-45.60ZM110.88-45.12L110.96-45.12L110.88-44.88L110.72-44.96ZM112-44.48C112-44.48 112.08-44.56 112.32-44.56C112.40-44.48 112.48-44.32 112.48-44.08C112.32-44.08 112.24-44 112.16-44.08L111.76-44.08L111.68-44.48ZM118.72-43.04C118.96-43.04 119.12-42.88 119.12-42.64C119.12-42.56 118.96-42.40 118.80-42.32L118.32-42.32C118.24-42.40 118.16-42.48 118.16-42.56C118.16-42.72 118.24-42.80 118.32-42.80C118.48-42.88 118.64-42.88 118.72-43.04ZM101.12-39.92C101.20-39.52 101.20-39.04 101.12-38.64C100.96-38.64 100.64-39.36 100.64-39.52C100.64-39.68 101.20-40.08 101.12-39.92ZM106.64-38.88C106.64-38.96 106.64-39.04 106.72-39.04L107.12-38.88C107.04-38.72 106.96-38.72 106.80-38.80C106.64-38.80 106.64-38.72 106.64-38.72ZM101.36-37.60L101.36-36.64L101.04-36.64L101.04-37.52ZM110.56-37.20C110.64-37.12 110.72-37.04 110.72-36.96C110.72-36.96 110.80-36.88 110.80-36.80L110.56-36.16C109.92-35.84 109.68-35.92 109.44-36.64C109.76-37.12 110.16-37.28 110.56-37.20ZM119.60-37.12L119.60-36.96L119.04-36.96L119.04-37.12ZM119.92-35.68L119.44-35.68L119.36-35.84C119.36-35.84 119.36-35.92 119.44-36.08C119.76-36.08 119.92-35.92 119.92-35.68ZM107.44-22.88L111.36-35.76C111.76-34.08 112.08-32.40 112.40-30.72C112.64-29.44 112.80-28.16 112.96-26.88L113.44-23.04ZM109.92-35.20L109.68-34.56L109.52-34.64L109.76-35.28ZM117.28-34.88L117.44-34.72L117.28-34.64L117.04-34.80ZM107.28-29.04C106.80-27.92 106-25.44 106-25.60L105.68-24.72C105.36-24.40 105.20-24.16 105.20-24C104.96-23.68 104.72-23.20 104.64-22.72C104.56-22.32 104.40-21.84 104.16-21.36C104.08-21.28 103.92-21.20 103.92-21.12C103.76-21.04 103.68-21.04 103.52-21.12C103.44-21.12 103.36-21.36 103.36-21.68C103.44-22 103.60-22.32 103.76-22.64C104-23.04 104.16-23.36 104.24-23.76C104.24-24.08 104.32-24.32 104.40-24.48C104.56-25.04 104.56-25.28 105.12-25.92C105.60-26.48 105.68-26.72 105.84-27.20C105.84-27.20 105.92-27.60 106.16-28.32C106.48-29.36 106.80-30.24 106.72-30.08C106.80-30.40 106.88-30.56 106.96-30.64C107.12-30.72 107.20-30.88 107.20-30.96C107.28-30.96 107.36-31.20 107.52-31.52C107.68-31.92 107.76-32.40 107.92-32.96C108-32.96 108.16-33.12 108.32-33.28C108.48-33.44 108.56-33.52 108.72-33.60L109.12-33.44C108.64-32.48 108.40-32 108.32-31.76C108.32-31.60 108.24-31.36 108.16-31.12C108.08-30.88 107.68-30.24 107.28-30ZM117.84-31.68L117.84-32L118.40-31.92C118.32-31.92 118.32-31.84 118.32-31.84L118.32-31.68ZM119.44-31.12L119.44-31.28L119.92-31.12L119.92-30.96ZM116.08-30.72L116.48-30.72C116.48-30.56 116.16-30.48 116.08-30.72ZM120.64-28.24C120.64-28 120.56-27.92 120.24-27.92ZM114.64-28C114.64-28 114.80-27.92 114.96-27.92C115.04-27.84 115.12-27.76 115.12-27.68L114.64-27.68ZM118-26.88L117.92-26.88L117.92-26.64L117.20-26.64C116.96-26.88 117.04-27.04 117.28-27.20L116.80-27.20C116.80-27.44 116.88-27.60 117.04-27.68C117.60-27.60 117.92-27.36 118-26.88ZM120.08-27.52C120.08-27.60 120.16-27.68 120.24-27.68L120.40-27.68C120.40-27.68 120.48-27.52 120.56-27.52C120.56-27.36 120.32-27.36 120.08-27.36ZM118.96-27.52C119.28-27.52 119.44-27.52 119.44-27.44L119.28-27.20C119.12-27.20 119.12-27.28 119.04-27.36C118.96-27.44 118.96-27.44 118.96-27.52ZM120.08-26.88L120.72-26.88C120.96-26.88 121.20-26.72 121.36-26.56C120.88-26.32 120.48-26.24 120.08-26.48ZM117.92-25.52C117.92-25.76 118.08-25.92 118.32-26C118.40-26 118.48-26 118.56-25.92C118.64-25.92 118.72-25.84 118.80-25.84L118.80-25.44L118.32-25.44C118.24-25.52 118.08-25.52 117.92-25.52ZM115.36-25.60L114.72-25.60L114.72-25.76L115.36-25.76ZM121.76-25.44C121.52-25.28 121.36-25.12 121.28-24.96C121.20-24.80 120.96-24.72 120.64-24.64C120.96-24.32 121.20-24.16 121.44-24.16C121.68-24.16 121.84-24 122-23.76C121.84-23.76 121.76-23.68 121.68-23.68L120.56-23.68C120.08-24.48 119.84-24.80 119.84-25.04C119.84-25.28 119.76-25.12 120.72-25.76L121.52-25.76C121.60-25.76 121.68-25.68 121.76-25.44ZM102.56-24.96C102.56-24.80 102.48-24.56 102.32-24.32C102.16-24.40 102.08-24.56 102.08-24.80C102.08-24.96 102.16-25.28 102.24-25.52L102.56-25.52ZM118.16-24.80L118-24.80C117.92-24.72 117.92-24.72 117.84-24.72L117.84-24.64L117.44-24.96L117.44-25.28L118-25.28L118.08-25.12C118.08-25.04 118.16-24.96 118.16-24.80ZM119.04-24.72C119.12-24.72 119.20-24.64 119.28-24.64C119.28-24.64 119.20-24.16 118.96-23.84L118.80-24.80L118.96-24.80C118.96-24.72 119.04-24.72 119.04-24.72ZM117.12-24.32L118.32-24.32C118.32-24.16 118-23.92 117.76-23.92C117.52-23.92 117.28-24 117.20-24C117.04-24 116.88-24 116.72-23.92L116.48-24.32C116.64-24.32 116.88-24.40 117.12-24.32ZM116.40-23.12L116.24-23.20L116.32-23.44L116.48-23.44ZM117.44-22.32C117.36-22.32 117.36-22.24 117.36-22.16L116.80-22.32C116.88-22.40 116.88-22.40 116.88-22.48L117.04-22.64C117.28-22.64 117.44-22.56 117.52-22.56C117.52-22.40 117.52-22.40 117.44-22.32ZM116.16-22.32L116.32-22.48C116.40-22.40 116.32-22.32 116.16-22.32ZM120.56-21.44C120.48-21.44 120.16-21.60 120.08-21.60C120.08-21.68 120.08-21.68 120.16-21.68C120.32-21.68 120.40-21.76 120.40-21.76C120.56-21.60 120.64-21.52 120.64-21.44ZM119.12-20.32L119.12-20.80C118.96-21.20 118.80-21.44 118.56-21.52C118.48-21.52 118.32-21.60 118.32-21.68C118.72-21.76 119.12-21.60 119.60-21.28C119.60-21.12 119.68-20.96 119.76-20.80C119.76-20.56 119.84-20.40 119.92-20.32ZM115.92-20.80L115.68-20.80L115.68-21.12L115.92-21.12ZM122.72-20.32L123.20-20.24L123.20-20.16L122.72-20.16ZM117.76-20.16L117.76-19.76L117.44-19.76L117.44-20.16ZM115.44-19.60L115.68-19.60L115.68-19.44L115.44-19.44ZM113.04-19.04L112.64-19.04L112.64-19.20L113.04-19.20ZM114.72-17.92L114.56-18.08L114.24-18.08C114.48-18.24 114.64-18.32 114.80-18.32C114.80-18.16 114.80-18 114.72-17.92ZM117.36-17.76L117.84-18.24C117.84-18.16 117.92-18.08 118.08-18.08C118.24-17.92 118.32-17.84 118.32-17.76C118.32-17.60 118.08-17.36 117.76-17.12C117.52-17.12 117.12-17.28 116.96-17.36C117.20-17.52 117.28-17.68 117.36-17.76ZM119.44-15.68L119.44-15.52L119.04-15.52L119.04-15.68ZM118.48-15.52L118.48-14.88C118.16-15.04 118-15.20 118-15.52ZM121.76-15.20C122-15.20 122.08-15.28 122.16-15.52C122.16-15.12 122.16-14.88 122.24-14.80L122.56-14.56C122.64-14.56 122.72-14.56 122.80-14.40C122.48-14.32 122.32-14.24 122.32-14.32C122.24-14.24 122.08-14.24 121.84-14.24C121.36-14.24 121.12-14.80 121.12-14.96ZM104.08-14.48L103.20-14.48L103.20-14.88L104.08-14.88ZM101.52-12.88C101.44-12.80 101.36-12.80 101.28-12.80C100.64-12.80 100.24-13.36 100.24-13.60C100.24-13.76 100.40-14.24 101.04-14.24C101.20-14.24 101.84-13.92 102-13.84C102-13.68 102.08-13.52 102.16-13.36C102.16-13.36 102.16-13.20 102.32-12.88ZM115.92-13.92L115.68-13.92L115.68-14.24L115.92-14.24ZM124.40-14.16L124.72-14.16L124.72-14L124.40-14ZM116.56-13.92L117.68-13.92L117.68-13.68L116.88-13.68C116.88-13.76 116.80-13.84 116.56-13.92ZM112.48-13.60L112.40-13.76L112.64-13.84L112.72-13.68ZM126-2.88C125.76-2.88 125.20-3.52 125.20-3.76L125.20-3.92C125.28-4 125.28-4.08 125.28-4.16C124.96-4.32 124.80-4.56 124.72-4.80C124.72-5.12 124.64-5.36 124.64-5.52C124.56-5.60 124.48-5.60 124.40-5.76C124.32-5.76 124.24-5.84 124.24-5.92C124.08-6 124.08-6.08 124-6.16L123.76-6.40L123.84-6.40L123.84-6.48L123.92-6.48L123.92-7.60L123.44-7.60C123.28-7.52 123.20-7.52 123.04-7.52C122.64-7.52 122.32-7.52 122.08-7.60C122.96-8 121.52-8.48 121.20-8.64L121.20-9.36C121.20-9.44 121.28-9.60 121.36-9.68C121.44-9.76 121.44-9.84 121.44-9.92C121.44-10 121.44-10 121.52-10C121.60-10 121.68-10.08 121.68-10.16C121.76-10.32 121.44-10.48 121.20-10.40C121.28-10.48 121.28-10.64 121.36-10.96C121.36-11.20 121.60-11.36 122.08-11.36C122.24-11.36 122.40-11.36 122.64-11.52C122.64-11.52 122.64-11.60 122.48-11.68C122.40-11.76 122.32-11.84 122.16-11.92C122-12.16 122-12.32 122.16-12.48C121.84-12.72 121.68-12.80 121.84-12.72C121.76-12.80 121.68-12.88 121.68-12.96C121.68-13.44 122.72-13.84 123.20-13.84C123.28-13.84 124.16-13.60 124.40-13.44L124.40-12.80L124.08-13.04C123.60-13.04 123.36-12.96 123.36-12.64L123.36-11.84L123.60-11.68C123.76-11.76 123.92-11.92 124.16-12.08L124.72-12.56C125.04-12 125.04-11.60 124.88-11.52C124.72-11.52 124.64-11.36 124.64-11.20C124.64-11.04 124.72-10.88 124.88-10.64C125.28-10 125.28-9.44 125.04-8.96C124.96-8.72 125.20-8.48 125.68-8.24C125.36-8 125.28-7.84 125.28-7.68C125.28-7.60 125.36-7.52 125.44-7.28C125.60-7.04 125.68-6.96 125.76-6.88C125.92-6.08 126-5.44 126.08-4.96C126.16-4.48 126.24-3.84 126.40-3.04C126.24-2.88 126.16-2.88 126-2.88ZM95.84-12.48L95.60-12.64L95.60-12.80C95.92-12.72 96-12.64 95.84-12.48ZM99.28-11.20C99.28-11.12 99.28-11.12 99.20-11.12C99.12-11.12 99.04-11.12 99.04-11.20C99.04-11.36 99.12-11.52 99.20-11.60C99.36-11.44 99.44-11.36 99.28-11.20ZM120.56-10.40C120.48-10.24 120.40-10.24 120.40-10.16C120.32-10.24 120.24-10.24 120.16-10.40C120.08-10.40 120.08-10.56 120.08-10.64L120.64-10.64C120.64-10.56 120.64-10.40 120.56-10.40ZM96.80-10.32C96.80-10.40 96.88-10.40 96.88-10.40C96.96-10.40 96.96-10.40 97.04-10.48C97.36-10.48 97.52-10.40 97.52-10.24L97.52-9.84L97.36-9.76L96.80-10ZM117.36-10.08L116.80-10.08L116.80-10.40L117.36-10.40ZM118.32-9.76C118.64-9.68 118.80-9.68 118.80-9.44L118.32-9.44ZM97.04-8.48C96.96-8.40 96.88-8.32 96.80-8.32C96.40-8.32 96.08-8.88 96.08-8.96C96.72-8.96 97.12-9.20 97.36-9.68C97.44-9.60 97.52-9.52 97.68-9.44C97.76-9.44 97.84-9.36 97.92-9.28L97.92-8.96L97.36-8.80C97.20-8.64 97.04-8.64 97.04-8.48ZM117.52-8.48L117.44-9.04C117.52-8.96 117.60-8.96 117.84-8.88L118.32-8.64ZM100.24-6.88C100.08-6.96 99.92-6.96 99.92-6.96C99.84-7.04 99.76-7.04 99.60-7.20C99.68-7.20 99.76-7.20 99.92-7.28L100.08-7.28C100.08-7.36 100.16-7.36 100.24-7.36L100.40-7.20C100.40-7.04 100.40-6.96 100.24-6.88ZM96.40-6.40C96.16-6.32 96-6.32 95.92-6.40C95.92-6.56 96.08-6.72 96.32-6.72C96.48-6.72 96.80-6.40 96.88-6.40ZM97.84-6.08L97.36-6.40C97.36-6.48 97.52-6.56 97.84-6.72C98.08-6.64 98.16-6.48 98.16-6.32C98.08-6.32 98-6.24 97.84-6.08ZM118.56-6.32C118.72-6.40 118.88-6.48 118.96-6.56C119.12-6.40 119.28-6.24 119.28-6.08L118.40-6.08ZM120.08-2.32C120.08-2.24 120.08-2.24 120-2.16C119.76-2.32 119.28-2.88 119.12-3.20L119.92-3.20C119.92-2.96 120-2.72 120.16-2.40C120.08-2.40 120.08-2.32 120.08-2.32ZM165.12-23.04C166.40-23.92 167.36-24.80 168.24-25.60C170.24-27.68 171.68-29.92 172.64-32.56C175.84-41.76 173.60-52.80 164.64-54.72C161.12-55.52 157.20-55.44 153.60-55.04L151.36-54.80L151.28-54.80L139.20-53.28C138.40-53.12 137.92-52.64 137.84-51.76L134.56-2.24C134.56-1.28 135.20-0.56 136.16-0.56L146-0.56C147.04-0.56 147.60-1.12 147.60-2.16L147.84-16.72L152.32-17.92C153.92-15.20 155.60-12.48 157.12-9.68L157.12-9.60C158.24-7.76 159.52-4.96 161.36-0.96C161.52-0.56 161.84-0.24 162.40-0.08C162.88 0 163.36-0.08 163.68-0.32L172.48-6.08C173.28-6.64 173.44-7.36 173.04-8.16ZM154.96-50.80L155.68-50.80L155.68-50.64L154.96-50.64ZM155.68-50.16L155.60-50.08C155.52-50 155.44-49.92 155.44-49.84L155.04-49.84L155.04-50.08L155.12-50.16ZM158.72-50C158.72-49.92 158.80-49.84 158.88-49.84C158.96-49.84 159.04-49.84 159.04-49.76L158.72-49.60ZM157.60-49.60L157.76-49.60L157.60-49.44L157.44-49.44ZM156.32-49.28L156.32-49.20C156.32-49.12 156.24-49.12 156.16-49.12C156.08-49.12 156.08-49.12 156.08-49.20C156.08-49.28 156-49.28 155.92-49.28ZM154.24-48.88C154.32-48.80 154.80-48.32 154.64-48.08L154.08-48.08C153.84-48.40 153.92-48.64 154.24-48.88ZM162.80-48.88L163.36-48.80C163.28-48.64 163.20-48.64 163.20-48.64C163.20-48.56 163.20-48.48 163.12-48.48C162.96-48.48 162.72-48.72 162.80-48.88ZM161.36-48.72C161.44-48.64 161.52-48.56 161.52-48.48C161.52-48.40 161.44-48.24 161.12-48.08L161.04-48.08L160.96-48.16L160.88-48.16C160.96-48.32 161.12-48.48 161.36-48.72ZM140.48-48.48L140.64-48.48L140.64-48.08L140.48-48.08ZM157.44-48.48C157.60-48.48 157.76-48.48 157.76-48.40C157.92-48.40 158-48.32 158.08-48.32L157.92-48.08L157.12-48.16C157.28-48.32 157.36-48.48 157.44-48.48ZM159.20-48.32L159.20-47.92L158.72-47.92C158.72-48 158.72-48 158.64-48.08C158.56-48.16 158.56-48.24 158.56-48.32ZM164.96-48.32L165.28-48.32L165.28-48.08L164.96-48.08ZM153.76-47.52L154-47.68L154.08-47.52L153.76-47.36ZM159.68-47.52C159.76-47.52 159.76-47.60 159.84-47.68L160-47.52C160.08-47.52 160.08-47.44 160-47.36L159.68-47.36ZM157.60-47.36L157.60-47.04L157.44-47.04L157.44-47.36ZM158.56-46.72L158.56-46.16L157.76-46.16C157.84-46.24 157.92-46.32 158.08-46.40C158.24-46.48 158.40-46.56 158.56-46.72ZM160.32-46.48L160.24-46.40L160.24-46.32L160.16-46.32C159.84-46.40 159.76-46.48 159.84-46.40C159.68-46.56 159.52-46.56 159.52-46.64C160.08-46.64 160.24-46.56 160.32-46.48ZM161.68-45.92C161.60-45.92 161.52-45.84 161.36-45.76L161.20-46.16C161.44-46.16 161.52-46.24 161.52-46.24L161.84-46.08ZM165.60-45.44C165.44-45.36 165.28-45.28 165.20-45.28L165.20-46.08C165.52-45.84 165.60-45.60 165.60-45.44ZM162.32-46C162.40-45.76 162.40-45.44 162.32-45.20C162.24-45.20 162.08-45.28 161.92-45.28C161.76-45.28 161.60-45.28 161.60-45.44C161.60-45.60 161.76-45.68 161.92-45.76ZM152.40-45.44C152.24-45.44 152.16-45.36 152.16-45.28L152.16-45.04C152.16-44.96 152.16-44.96 152.24-44.88C152.24-44.80 152.32-44.72 152.32-44.64L152-44.48C151.84-44.88 151.84-45.04 151.84-44.96C151.84-45.12 151.76-45.28 151.68-45.44ZM162.40-44.88L162.40-44.64L162.24-44.64L162.24-44.56L161.92-44.56L161.84-44.64L161.92-45.04C162.08-45.04 162.24-44.96 162.40-44.88ZM165.92-44L165.28-44.08C165.44-44.24 165.68-44.40 166-44.56C166.08-44.32 166.08-44.08 165.92-44ZM166.72-43.76C166.80-43.76 166.88-43.68 166.96-43.44C166.88-43.44 166.80-43.52 166.72-43.60C166.64-43.68 166.56-43.76 166.56-43.84C166.56-43.84 166.64-43.84 166.72-43.76ZM148.56-30.24L149.76-41.76L155.36-43.04C156.64-43.36 157.76-43.36 158.72-43.28C159.68-43.04 160.32-42.64 160.56-42L160.56-41.92C161.36-40.16 160.40-37.92 159.60-36.32C157.36-32 152.96-30.88 148.56-30.24ZM163.76-42.40C163.92-42.32 164-42.32 164.08-42.32C164.16-42.24 164.16-42.16 164.16-42.08L163.76-42.08ZM163.60-41.28C163.52-41.28 163.60-41.36 163.68-41.44C163.76-41.44 163.84-41.52 164-41.60L164.32-41.60C164.32-41.44 164.24-41.28 164.08-41.12ZM165.20-41.28L165.20-41.60L165.60-41.60C165.60-41.44 165.44-41.28 165.20-41.28ZM171.12-40.48L171.68-40.48L171.68-41.12C171.92-40.80 172-40.56 172-40.40C172-40.32 172-40.24 171.92-40.16C171.84-40.16 171.84-40.08 171.84-40C171.60-40 171.44-40.08 171.36-40.08C171.20-40.16 171.04-40.16 170.96-40.24C171.04-40.24 171.12-40.32 171.12-40.48ZM164.88-40.64L164.96-40.64C165.04-40.64 165.12-40.64 165.20-40.56C165.20-40.48 165.28-40.40 165.28-40.40C165.20-40.40 164.88-40.48 164.72-40.56C164.80-40.56 164.88-40.56 164.88-40.64ZM165.04-40.08L165.28-39.84L165.20-39.84L164.96-40ZM171.68-38L171.68-39.84L171.84-39.84L171.84-38ZM171.76-36.16C171.84-35.92 171.92-35.68 171.92-35.36C171.84-35.28 171.84-35.12 171.84-34.96C171.84-34.72 171.84-34.48 171.92-34.16C171.92-33.76 172-33.44 172-33.20C172-32.80 171.84-32.48 171.68-32.24L171.68-37.92C171.76-37.76 171.84-37.60 171.76-37.44C171.76-37.28 171.84-37.12 172.16-37.04C171.76-36.72 171.68-36.40 171.76-36.16ZM162.64-37.04C163.04-37.04 163.36-36.80 163.52-36.48ZM164.88-35.60L164.16-35.60L164.16-35.84L164.88-35.84ZM162.08-34.64L162.24-35.20C162.24-35.20 162.40-35.20 162.64-35.04C162.72-34.96 162.80-34.88 162.80-34.80ZM142.72-33.60C142.72-33.68 142.56-33.76 142.40-33.84C142.16-33.92 141.92-34 141.76-34C142.16-34.08 142.40-34.16 142.56-34.40C142.56-34.24 142.56-34.16 142.72-34.08C142.88-33.92 142.96-33.84 143.04-33.60ZM160.64-33.60C160.64-33.60 160.56-33.68 160.56-33.76C160.56-33.92 160.64-34 160.72-34C160.64-34 160.72-34.08 160.96-34.16L161.60-34.08L161.60-33.68C161.36-33.28 161.12-33.44 160.64-33.60ZM141.28-34.08L141.76-34.08C141.76-34 141.68-33.92 141.60-33.84L141.60-33.76C141.52-33.76 141.52-33.68 141.44-33.68C141.36-33.76 141.28-33.76 141.28-33.92ZM141.92-32.64C141.76-32.64 141.68-32.72 141.60-32.80C141.52-32.80 141.44-32.88 141.28-32.88C141.44-33.04 141.60-33.12 141.76-33.20C141.92-33.28 142-33.36 142.08-33.36C142.40-33.36 142.64-33.12 143.04-32.88C142.24-32.72 142.08-32.64 141.92-32.64ZM162.88-32.80L162.56-32.88L162.72-33.20L163.04-33.12ZM157.60-32.08C157.68-32 157.68-31.84 157.60-31.76L157.60-31.60C157.92-31.60 158.16-31.52 158.40-31.36C158-31.20 158-31.12 157.60-31.12L157.60-31.52C157.44-31.52 157.20-31.60 157.12-31.68C157.12-31.84 157.36-32.08 157.60-32.08ZM159.84-31.52L160.32-32L160.48-31.68L160.48-31.52ZM141.44-31.28L141.28-31.84L141.44-31.84L141.60-31.28ZM159.04-30.96C158.88-31.04 158.72-31.36 158.56-31.68L159.04-31.68C159.20-31.44 159.20-31.20 159.04-30.96ZM141.44-30.72L141.28-30.80L141.44-31.12L141.60-31.04ZM143.92-30.64L143.52-30.64L143.52-30.96L143.92-30.96ZM154.08-30.56L154.08-30.88L154.48-30.64ZM158.40-30.64L158.56-30.08L159.36-30.08L159.36-30C159.36-29.92 159.36-29.92 159.44-29.84L159.52-29.76L158.24-30.08L157.60-30.08C157.84-30.32 158.08-30.48 158.40-30.64ZM159.52-29.20C159.36-29.36 159.44-29.60 159.68-29.92L159.92-29.68C160-29.60 160-29.44 160-29.36C160-29.28 159.92-29.28 159.84-29.28C159.76-29.28 159.68-29.20 159.52-29.20ZM158.08-28.48L158.08-29.28L158.24-29.44L158.40-29.44L158.56-29.60C158.64-29.28 158.64-29.28 158.72-29.20L158.80-29.12C158.80-29.04 158.88-28.96 158.88-28.96C158.88-28.72 158.72-28.56 158.40-28.32C158.32-28.40 158.24-28.48 158.08-28.48ZM140.32-29.20L140.32-29.44C140.48-29.28 140.64-29.12 140.64-29.04L140.24-29.04C140.24-29.12 140.24-29.20 140.32-29.20ZM160.48-28.72L161.12-28.88L161.12-28.56L160.48-28.48ZM159.68-28.40L159.68-27.84L159.52-27.84C159.20-27.84 159.04-27.92 159.04-28.08C159.04-28.32 159.28-28.40 159.68-28.40ZM142.24-28.08L142.24-28.16L142.72-28.32L142.88-28.24ZM152.96-27.68L152.64-27.84C152.64-28 152.72-28.16 152.96-28.24L153.28-28C153.20-27.92 153.12-27.76 152.96-27.68ZM160-27.84C160.24-27.60 160.24-27.44 160-27.28L159.52-27.28C159.52-27.52 159.68-27.68 160-27.84ZM159.04-27.12C158.88-27.12 158.72-27.12 158.56-27.20C158.56-27.28 158.80-27.52 159.04-27.52C159.20-27.44 159.36-27.28 159.36-27.12ZM160.96-26.56C160.80-26.48 160.72-26.48 160.56-26.56C160.56-26.88 160.48-27.04 160.40-27.20L160.96-27.20C161.04-27.20 161.12-27.12 161.12-27.12C161.12-27.04 161.20-27.04 161.20-27.04C161.28-27.04 161.36-27.04 161.36-26.96L161.36-26.56ZM152.32-25.76L152.32-25.92L152.64-25.92L152.64-25.76ZM160.48-25.44L160.32-25.92C160.72-25.92 160.96-25.84 161.04-25.76C161.04-25.68 160.96-25.60 160.88-25.52C160.80-25.44 160.64-25.44 160.48-25.44ZM152.64-24.64C152.64-24.80 152.72-24.88 152.96-24.88C153.04-24.88 153.04-24.80 152.96-24.48L152.72-24.48C152.64-24.48 152.64-24.56 152.64-24.64ZM160.72-23.68L160.16-23.68C160.08-23.76 160-23.76 160-23.76C160-24 160.16-24.24 160.40-24.48C160.48-24.32 160.56-24.24 160.56-24.16ZM160.88-23.20L160.56-23.28L160.80-23.60L161.12-23.52ZM161.52-22.88C161.36-22.96 161.36-23.04 161.52-23.28L162.24-23.12C162-22.96 161.76-22.88 161.52-22.88ZM160.40-23.04C160.40-22.96 160.32-22.88 160.24-22.88C160-22.88 159.84-22.88 159.68-23.04C159.84-23.20 160.16-23.28 160.40-23.12ZM153.04-21.44L152.96-21.60L153.12-21.68L153.20-21.44ZM161.36-18.72L161.44-18.72L161.52-18.80C161.52-18.80 161.60-18.80 161.60-18.88C161.68-18.80 161.68-18.72 161.68-18.56ZM168.48-15.20C168.48-15.04 168.40-14.96 168.32-14.96L168.08-15.20ZM168.80-14.24C168.80-14.08 168.80-14 168.96-13.76C168.72-13.76 168.48-13.84 168.32-14L168.32-14.48L168.72-14.48C168.72-14.40 168.80-14.32 168.80-14.24ZM169.12-12.48L168.96-12.56L169.12-12.80L169.28-12.72ZM170.24-9.20C170.16-9.04 170.16-8.96 170.16-8.96C170-8.96 169.60-9.28 169.60-9.60C169.60-9.68 169.68-9.76 169.84-9.92C170.16-9.84 170.32-9.68 170.32-9.52ZM168.16-8.32C168-8.32 167.76-8.40 167.52-8.64C167.52-8.80 167.76-8.96 168-8.96C168.16-8.96 168.40-8.96 168.56-8.88L168.80-8.72C168.88-8.72 168.96-8.64 169.04-8.64C168.88-8.48 168.32-8.32 168.16-8.32ZM140.64-3.68C140.72-3.68 140.80-3.76 140.80-4L141.12-4C141.04-3.76 140.88-3.68 140.64-3.68ZM225.20-47.36C225.20-49.84 224.32-51.92 222.72-53.52C221.36-54.88 219.44-55.28 217.52-55.28L214.08-55.28C213.76-55.28 213.60-55.20 213.44-55.12L213.44-54.88C213.36-54.80 213.36-54.72 213.36-54.72C213.36-54.48 213.20-54.40 212.96-54.32L212.72-54.48L212.64-54.56C212.64-54.40 212.56-54.40 212.56-54.24L212.08-53.28L212.96-53.28C215.44-53.28 217.92-53.36 220.32-53.60L220.24-52.88C217.12-52.72 214.40-52.64 211.84-52.64L202.24-29.84L196.48-49.84L196.48-49.92C196.08-51.04 195.60-51.92 194.96-52.64C192.96-52.64 191.12-52.72 189.44-52.88L189.12-53.04C188.96-53.04 188.72-52.96 188.56-52.96L188.24-52.96C188.08-52.88 188.00-52.88 187.92-52.80C186.64-52.64 185.68-52.64 185.28-52.72C184.64-52.80 183.44-52.96 181.28-52.80L181.44-53.92C181.76-53.44 181.92-53.28 181.92-53.20C182.00-53.20 182.00-53.20 182.08-53.28C182.08-53.36 182.16-53.44 182.32-53.52C182.48-53.60 182.80-53.52 183.20-53.28C183.84-53.92 184.56-53.76 185.28-53.60C185.76-53.52 186.16-53.44 186.40-53.44C186.72-53.44 187.04-53.60 187.36-54C188.96-53.76 189.92-53.60 190.24-53.60C191.04-53.36 191.68-53.28 192.32-53.28C192.96-53.28 193.60-53.28 194.24-53.36C192.88-54.56 191.20-55.12 189.12-55.04L188.72-55.04L188.96-54.80C188.88-54.80 188.80-54.80 188.72-54.88C188.64-54.96 188.64-55.04 188.64-55.04L182.32-54.80C181.28-54.72 180.80-54.24 180.72-53.20L180.32-44.96C180.48-44.56 180.40-44.16 180.32-43.68L179.52-27.60L178.24-1.68C178.24-0.72 178.96 0 179.92 0L191.20-0.24L187.44-0.24C187.60-0.64 188.08-0.80 188.32-0.80C188.40-0.80 188.56-0.72 188.80-0.64C189.04-0.56 189.20-0.56 189.28-0.56L191.44-0.56C191.68-0.56 191.92-0.56 192.08-0.48C192.48-0.80 192.80-1.28 192.80-1.84L193.04-10.08L192.88-10.08L192.88-10.48C192.96-10.48 192.96-10.56 193.04-10.56L193.28-18.56L193.60-17.44L196.64-8.16C197.60-4.80 200.64-3.68 203.44-5.20C205.28-6.08 206.56-8.48 207.44-10.24C207.44-10.32 207.44-10.24 211.68-19.04L210.64-1.92C210.56-1.12 211.36-0.24 212.24-0.24L223.84 0C224.72 0 225.44-0.72 225.44-1.60ZM191.36-54.56C191.44-54.56 191.52-54.56 191.68-54.72C191.84-54.72 192.00-54.64 192.00-54.48C192.00-54.40 191.92-54.32 191.84-54.16L191.36-54.16C191.36-54.16 191.28-54.24 191.28-54.40C191.28-54.48 191.36-54.56 191.36-54.56ZM217.60-54.56C217.68-54.56 217.68-54.56 217.68-54.56ZM217.84-54.24C217.92-54.32 217.84-54.40 217.76-54.56C217.92-54.48 218.08-54.48 218.32-54.40C218.88-54.16 219.92-53.92 219.92-53.92ZM215.20-53.68L214.40-53.44C214.40-53.44 214.32-53.44 214.32-53.52C214.24-53.52 214.16-53.60 214.08-53.68C214.24-54.08 215.04-54.32 215.20-54ZM189.60-54.16C189.60-54.16 189.60-54.16 189.60-54.16L189.68-54.16C189.68-54.08 189.68-54.08 189.60-54.16ZM181.04-51.20L181.28-51.36L181.44-51.20ZM180.96-49.92L181.28-50.40L181.28-49.92ZM196.24-43.92C196.24-43.84 196.24-43.68 196.16-43.52L195.52-43.52C195.68-43.76 195.84-43.92 195.92-44C196.00-44.08 196.16-44.16 196.24-44.32ZM194.08-43.20L194.64-43.20L194.64-43.04L194.08-43.04ZM218.72-42.40L218.40-42.40C218.24-42.56 218.16-42.72 218.16-42.88L218.72-42.88C218.72-42.72 218.80-42.72 218.96-42.64ZM216.40-42.24L216.96-42.08L216.96-41.60C216.64-41.44 216.40-41.36 216.16-41.36C216.00-41.36 215.84-41.44 215.76-41.52C216.16-41.60 216.40-41.84 216.40-42.24ZM194.96-39.84C194.88-39.84 194.80-39.84 194.64-39.92L194.72-40L194.72-40.08C194.80-40.08 194.80-40.08 194.80-40.16C194.88-40.16 194.96-40.08 195.36-39.84ZM218.48-38.64C218.24-38.56 218.08-38.56 218.00-38.72C218.08-38.72 218.16-38.72 218.24-38.88L218.40-39.04C218.72-38.96 218.88-38.80 218.88-38.64ZM181.44-29.84L181.20-30.32L181.44-30.08ZM216.08-28.96L216.32-29.12C216.56-29.12 216.72-29.04 216.72-28.80L216.48-28.80C216.32-28.72 216.24-28.72 216.24-28.72L216.24-28.80ZM202.72-28.16C202.88-28 202.88-27.92 202.88-27.92L202.96-27.84C203.04-27.84 203.04-27.76 203.04-27.76L202.88-27.52L202.24-27.52C202.24-27.68 202.24-27.68 202.16-27.76C202.08-27.84 202.08-28 202.08-28.16ZM214.56-26L214.48-26C214.40-26 214.32-26 214.32-25.92L214.24-26C214.16-26 214.16-26.08 214.16-26.16C214.16-26.32 214.32-26.48 214.56-26.56ZM200.80-25.92L201.60-25.84C201.60-25.60 201.52-25.44 201.36-25.44L201.20-25.52L201.12-25.76ZM181.44-24.80L181.20-24.80L181.20-25.76L181.44-25.76ZM207.20-24.48C206.96-24.48 206.72-24.48 206.64-24.56C206.64-24.64 206.56-24.80 206.48-24.80C206.72-25.12 206.96-25.28 207.20-25.28C207.60-25.28 207.84-25.12 207.84-24.88C207.84-24.80 207.84-24.72 207.76-24.72C207.76-24.72 207.68-24.72 207.68-24.64L207.68-24.56C207.52-24.56 207.36-24.48 207.20-24.48ZM203.28-23.60C203.20-23.60 202.96-23.68 202.64-23.84L202.40-24C202.56-24.08 202.72-24.08 202.72-24.08L203.68-24.32C203.84-24.08 203.92-23.84 203.76-23.68L203.60-23.68C203.52-23.60 203.44-23.60 203.28-23.60ZM181.44-23.52L181.20-23.52L181.20-24.24L181.44-24.24ZM201.84-22.64L202.24-22.64L202.24-22.32L201.84-22.32ZM208.16-22.24L207.44-22.24L207.44-22.48L208.16-22.48ZM180.88-22.08C181.04-22.16 181.12-22.24 181.12-22.32L181.12-21.68L181.12-21.76C180.72-21.84 180.64-22 180.88-22.08ZM181.12-21.60L181.20-19.04C180.80-19.28 180.72-19.68 180.80-20.16C180.88-20.32 180.88-20.48 180.88-20.80C180.88-20.96 180.80-21.12 180.72-21.28C180.96-21.36 181.12-21.52 181.12-21.60ZM202.32-19.84L202.08-20.32C202.40-20.32 202.72-20.32 202.88-20.48C202.96-20.40 203.04-20.40 203.04-20.32L203.28-20.08L202.88-19.92L202.64-19.92ZM205.68-19.52L205.28-19.28C205.04-19.28 204.80-19.52 204.80-19.76C204.80-19.84 204.96-20 205.20-20.16L205.68-20.16L205.76-20.08L205.84-20.08C205.92-20 206.00-19.92 206.00-19.84C206.00-19.68 205.92-19.60 205.68-19.52ZM204.24-17.68L203.92-17.68L203.68-17.92C203.44-17.76 204.16-18.32 204.40-18.32C204.64-18.32 204.96-18.08 205.20-17.68C204.64-17.68 204.32-17.60 204.24-17.68ZM207.20-17.52L207.04-17.52L207.04-17.28C207.12-17.28 207.12-17.20 207.12-17.12C207.04-16.96 207.04-16.88 207.04-16.72C206.96-16.56 206.88-16.48 206.64-16.48C206.32-16.48 206.16-16.56 206.08-16.72C206.00-16.80 206.00-16.96 206.00-17.12C206.00-17.44 206.40-18 206.88-18.32C207.20-18.08 207.36-17.92 207.36-17.76C207.36-17.68 207.28-17.60 207.20-17.52ZM181.20-1.92L180.40-0.88C180.32-1.12 180.32-1.52 180.24-1.92C180.24-2.08 180.16-2.40 180.16-2.80C180.16-3.20 180.24-3.44 180.32-3.68C180.48-4.40 180.56-5.12 180.56-5.76C180.56-6.48 180.48-7.04 180.40-7.60C180.32-8.16 180.16-8.72 180.08-9.36C180.00-9.84 179.92-10.56 179.84-11.44L179.68-14.72C179.68-14.56 179.76-14.56 179.84-14.64C179.92-14.72 180.08-14.80 180.24-14.96C180.48-15.20 180.72-15.60 180.72-16L180.72-18.24L181.44-18.08L180.96-12.72L180.72-7.92ZM203.44-16.72C203.36-16.64 203.28-16.64 203.12-16.64L203.04-16.72L203.04-17.04C203.12-17.04 203.60-16.88 203.60-16.72ZM202.24-15.52L202.24-15.60C202.24-15.68 202.24-15.68 202.40-15.68C202.48-15.68 202.32-15.52 202.24-15.52ZM216.80-11.92C216.72-11.84 216.64-11.76 216.56-11.76C216.32-11.76 216.24-11.84 216.16-11.92C216.08-12 216.00-12 216.00-12.08C216.08-12.32 216.24-12.48 216.48-12.48C216.64-12.48 216.72-12.40 216.80-12.32C216.80-12.32 216.88-12.32 217.04-12.16ZM221.36-10.40C221.52-10.56 221.68-10.64 221.76-10.64C221.84-10.64 221.92-10.56 221.92-10.40ZM203.12-8.96L202.88-8.80C202.72-8.80 202.56-8.88 202.48-8.96C202.32-9.04 202.16-9.12 202.08-9.20C201.76-9.28 201.52-9.44 201.20-9.60C201.20-9.68 201.44-9.92 201.60-9.92C201.76-9.92 201.84-9.84 202.00-9.76C202.24-9.60 202.56-9.44 203.12-9.44ZM204.88-8.56C204.80-8.64 204.40-8.80 204.24-8.96C204.24-9.12 204.32-9.28 204.48-9.36C204.56-9.28 204.72-9.20 204.80-9.04L205.04-8.72ZM191.36-8.64C191.36-8.88 191.68-8.96 191.92-8.96C192.32-8.96 192.32-8.80 192.32-8.64C192.32-8.40 192.24-8.24 192.00-8.24C191.52-8.24 191.36-8.40 191.36-8.64ZM188.72-7.84C188.72-7.76 188.64-7.68 188.48-7.60C188.24-7.60 188.16-7.68 188.16-7.84L188.16-8C188.24-8 188.24-8.08 188.24-8.08L188.64-8.08L188.72-8ZM202.88-6.56L202.64-6.64C202.64-6.80 202.72-6.88 202.88-6.88ZM202.88-5.44L202.72-5.52L202.72-5.84L202.88-5.84ZM187.28-5.28C187.20-5.28 187.20-5.28 187.20-5.20C186.96-5.20 186.64-5.28 186.40-5.52C186.48-5.60 186.96-5.76 187.04-5.76C187.20-5.76 187.28-5.60 187.28-5.44ZM192.32-2.72C192.40-2.72 192.48-2.72 192.56-2.64L192.56-2.56L192.40-2.56C192.00-2.56 191.84-2.64 191.92-2.80C192.00-2.96 191.92-3.12 191.68-3.36L191.68-3.52C191.68-3.60 191.84-3.68 192.08-3.68C192.08-3.68 192.16-3.68 192.32-3.60C192.32-3.60 192.48-3.52 192.56-3.52C192.48-3.44 192.32-3.28 192.16-3.20L192.16-2.88ZM267.36-40.48C266.40-48.72 261.68-54.88 253.04-55.28L252.96-55.28L250.80-55.20C250.08-55.04 249.36-55.04 248.64-54.96C246.72-54.72 244.80-54.32 232.00-51.68C231.20-51.52 230.80-51.04 230.72-50.24L228.96-12.40L229.04-12.32C229.12-12.32 229.20-12.24 229.20-12.16L228.96-12.16L228.80-7.92L229.12-8.16L229.52-8.16L229.76-8C229.44-7.76 229.28-7.60 228.96-7.52L228.80-7.68L228.48-1.68C228.48-0.72 229.12 0 230.08 0L239.92 0C240.96 0 241.52-0.48 241.52-1.60L242.00-15.84L244.48-16.16C244.40-16.16 244.40-16.16 244.40-16.24C244.40-16.40 244.56-16.48 244.80-16.48C244.88-16.48 244.96-16.48 244.96-16.32L245.04-16.32C245.28-16.32 245.44-16.40 245.68-16.40C245.92-16.48 246.16-16.48 246.40-16.56C247.76-16.80 248.96-17.04 250.16-17.44C253.12-18.24 256.08-19.36 258.72-20.80L258.80-20.80C260.64-21.84 262.24-23.20 263.60-25.04L263.60-30.64C263.68-30.56 263.68-30.48 263.68-30.24C263.60-30.08 263.68-29.92 264-29.84C263.76-29.52 263.68-29.28 263.68-28.96C263.76-28.72 263.76-28.48 263.76-28.16L263.84-28.16C263.76-28.16 263.68-28 263.68-27.76C263.68-27.52 263.68-27.28 263.76-26.96C263.84-26.64 263.84-26.32 263.84-26C263.84-25.60 263.76-25.28 263.60-25.04C264.40-26.08 265.12-27.28 265.76-28.56C267.36-32.08 267.92-36 267.36-40.48ZM233.36-46.96L233.52-46.96L233.52-46.72L233.36-46.72ZM242.64-28.64L243.44-41.44L249.76-42.72C253.44-43.44 254.88-38.72 254.40-35.60C254.08-34.24 253.44-33.12 252.40-32.24C250.72-30.80 248.48-29.92 246.48-29.28C245.60-29.04 243.36-28.72 242.64-28.64ZM259.36-42.16L259.04-42.16L259.04-42.32L259.36-42.32ZM254.72-41.68L255.28-41.52C255.20-41.52 255.12-41.44 255.12-41.44C255.12-41.28 254.88-41.20 254.72-41.44C254.64-41.44 254.64-41.60 254.72-41.68ZM232.40-41.28L232.56-41.28L232.56-40.88L232.40-40.88ZM256.88-41.12L257.12-41.12L257.12-40.88L256.88-40.88ZM257.60-38.24C257.36-38.08 257.12-38 256.96-38L256.96-38.96C257.44-38.72 257.60-38.40 257.60-38.24ZM257.76-36.64L256.96-36.80C257.12-36.96 257.28-37.04 257.44-37.12L257.52-37.12C257.52-37.20 257.60-37.20 257.60-37.20C257.60-37.20 257.76-37.28 257.92-37.44C258-37.28 258.08-37.12 258.08-37.04C258.08-36.96 257.92-36.80 257.76-36.64ZM258.72-36.24C258.48-36.24 258.40-36.40 258.40-36.56L258.56-36.64L258.72-36.56C258.80-36.56 258.88-36.32 259.04-36ZM255.60-35.20L255.92-35.20C256-35.20 256-35.12 256.08-35.12C256.16-35.04 256.16-34.88 256.16-34.80L255.60-34.80ZM255.44-33.92C255.36-34 255.44-34.08 255.60-34.24L255.92-34.48C256-34.40 256.16-34.40 256.32-34.40C256.32-34.16 256.16-34 256-33.84ZM256.96-34L256.96-34.40L257.60-34.40C257.60-34.16 257.36-34 256.96-34ZM263.84-32.96C263.68-32.88 263.68-32.80 263.68-32.80C263.44-32.80 263.28-32.88 263.28-32.88C263.04-32.96 262.88-32.96 262.80-33.04C262.96-33.04 263.04-33.12 262.96-33.28L263.52-33.28C263.60-33.36 263.60-33.44 263.60-33.60C263.52-33.68 263.52-33.84 263.60-33.92C263.84-33.60 263.92-33.36 263.92-33.20C263.92-33.12 263.92-33.04 263.84-32.96ZM256.48-33.28L256.64-33.36C256.72-33.44 256.88-33.44 257.12-33.44C257.12-33.36 257.28-33.28 257.60-33.04C257.28-33.04 256.88-33.12 256.48-33.28ZM257.12-32.48L256.64-32.80L256.96-32.96L257.28-32.64ZM263.76-30.80L263.52-30.80L263.52-32.64L263.76-32.64ZM254.56-31.04C254.88-30.96 255.20-30.72 255.44-30.40ZM256.88-27.20L256.08-27.20L256.08-27.36L256.88-27.36ZM254.16-26.72C254.40-26.72 254.72-26.56 254.72-26.32L254.00-26.24ZM253.20-26.48L253.20-26.32L252.72-26.32L252.72-26.48ZM234.64-25.12C234.48-25.28 234.16-25.44 233.76-25.52C233.84-25.52 233.92-25.52 233.92-25.60C234.08-25.60 234.32-25.76 234.40-25.84C234.40-25.76 234.48-25.60 234.64-25.52C234.80-25.44 234.96-25.28 235.04-25.12ZM253.52-25.20C253.44-25.04 253.28-24.96 253.04-24.96C252.88-24.96 252.72-25.04 252.64-25.12L252.56-25.12C252.48-25.12 252.48-25.20 252.48-25.36C252.48-25.44 252.48-25.52 252.64-25.60L252.72-25.60C252.72-25.68 252.80-25.68 252.88-25.76L253.52-25.60ZM233.20-25.60L233.60-25.60C233.60-25.52 233.60-25.44 233.52-25.36L233.36-25.12C233.28-25.28 233.20-25.36 233.20-25.44ZM244.88-25.04L244.88-25.44L245.12-25.44L245.12-25.04ZM233.44-24.24C233.52-24.24 233.44-24.32 233.20-24.40C233.28-24.48 233.44-24.56 233.60-24.72C233.76-24.80 233.92-24.88 234.08-24.88C234.24-24.88 234.32-24.80 234.48-24.72C234.64-24.56 234.80-24.48 234.88-24.40C234.72-24.40 234.56-24.32 234.32-24.24C234.08-24.16 233.92-24.16 233.76-24.16C233.68-24.16 233.60-24.16 233.44-24.24ZM254.80-24.32L254.48-24.40L254.64-24.80L254.96-24.64ZM249.44-23.60C249.52-23.52 249.60-23.44 249.60-23.36C249.60-23.28 249.52-23.20 249.52-23.12C249.68-23.12 250.08-22.96 250.24-22.80C250.24-22.80 250.08-22.72 250.00-22.72L249.52-22.72L249.52-23.12C249.28-23.12 249.12-23.20 248.96-23.20C248.96-23.36 249.20-23.60 249.44-23.60ZM251.76-23.12L252.24-23.44C252.24-23.44 252.24-23.36 252.32-23.36L252.32-23.20C252.40-23.20 252.40-23.20 252.40-23.12ZM233.36-22.72L233.12-23.36L233.28-23.36L233.52-22.72ZM250.96-22.56C250.72-22.64 250.56-22.88 250.40-23.20L250.96-23.20C251.12-23.04 251.12-22.72 250.96-22.56ZM233.28-22.24L233.12-22.32L233.36-22.56L233.52-22.56ZM245.84-22L245.84-22.56L246.48-22.08ZM235.84-22.08L235.36-22.08L235.36-22.48L235.84-22.48ZM250.24-22.16L250.40-21.52L250.72-21.52L251.04-21.60L251.12-21.68L251.20-21.68C251.20-21.60 251.20-21.60 251.28-21.52L251.36-21.44L251.36-21.28L250.16-21.52L249.52-21.52C249.68-21.76 249.92-22 250.24-22.16ZM251.92-20.88C251.84-20.88 251.84-20.80 251.76-20.80L251.44-20.80C251.36-20.96 251.36-21.20 251.52-21.44C251.76-21.28 251.92-21.12 251.92-20.88ZM249.92-20L249.92-20.80C250.00-20.88 250.08-20.88 250.08-20.88C250.08-20.88 250.08-20.96 250.16-20.96L250.24-20.96C250.32-20.96 250.32-21.04 250.40-21.04C250.48-20.96 250.56-20.80 250.64-20.80C250.72-20.64 250.72-20.56 250.72-20.48C250.72-20.32 250.56-20.16 250.32-19.84C250.24-19.92 250.08-20 249.92-20ZM232.24-20.72L232.24-20.96C232.32-20.88 232.32-20.80 232.48-20.72C232.56-20.64 232.56-20.56 232.56-20.56L232.16-20.56C232.16-20.64 232.16-20.64 232.24-20.72ZM253.04-20.16L252.40-20L252.40-20.24L253.04-20.40ZM244.80-19.12L244.40-19.36C244.40-19.52 244.72-19.84 244.80-19.92L245.28-19.52ZM250.96-19.60C250.96-19.84 251.20-19.92 251.60-19.92L251.60-19.68C251.60-19.52 251.60-19.44 251.52-19.36L251.36-19.36C251.12-19.36 250.96-19.44 250.96-19.60ZM234.16-19.52L234.16-19.68L234.64-19.84L234.72-19.68ZM251.92-18.80L251.52-18.80C251.52-19.04 251.68-19.12 251.92-19.20C252.00-19.12 252.00-18.96 251.92-18.80ZM250.56-18.64C250.56-18.80 250.72-18.96 250.96-18.96C251.12-18.88 251.20-18.72 251.20-18.64ZM232.96-18L232.80-18L232.80-18.48L232.96-18.48ZM244.64-17.28L244.16-17.28L244.16-17.60L244.64-17.60ZM232.88-1.52C232.48-1.60 232.08-1.68 231.84-1.68C231.36-1.68 230.96-1.76 230.72-1.84C230.32-2.24 230.24-3.84 230.24-4.08C230.24-4.16 230.32-4.32 230.40-4.40C230.48-4.56 230.48-4.64 230.48-4.80C230.56-5.28 230.56-5.76 230.72-6.32C230.80-6.72 230.80-7.20 230.80-7.84L230.80-8.08C230.80-8.08 230.88-8.24 231.12-8.48C231.20-8.64 231.28-8.72 231.44-8.80C231.36-9.28 231.20-9.76 231.52-10.56C231.60-10.56 231.68-10.72 231.60-10.96C231.44-11.20 231.60-11.76 231.76-12.16C231.84-12.40 231.76-12.56 231.60-12.80L231.68-12.80C231.76-12.80 231.76-12.80 231.84-12.88C232.08-13.04 231.92-13.12 231.92-13.20C231.84-13.28 231.84-13.36 231.84-13.44C231.84-13.52 231.84-13.60 232.00-13.68C232.00-13.76 232.08-13.76 232.08-13.76C232.16-13.84 232.16-13.92 232.24-13.92C232.32-14 232.32-14.24 232.24-14.56C232.16-14.72 232.16-14.96 232.48-15.04C232.56-15.12 232.48-15.20 232.40-15.28C232.32-15.36 232.32-15.44 232.32-15.52C232.32-15.76 232.48-16.08 232.56-16.48C232.64-16.80 232.80-17.12 232.88-17.52ZM229.52-14.96L230.00-14.96L230.00-14.72L229.52-14.72ZM230.00-13.36C229.84-13.20 229.68-13.12 229.52-13.12L229.28-13.36C229.28-13.60 229.76-13.60 230.00-13.36ZM229.92-12.40C229.92-12.40 229.76-12.40 229.68-12.32L229.28-12.56C229.44-12.64 229.84-12.64 230.08-12.56C230.08-12.48 230.00-12.40 229.92-12.40ZM229.36-11.76C229.44-11.84 229.44-11.92 229.44-12C229.44-12.16 229.52-12.24 229.52-12.24C229.52-12.08 229.68-11.92 229.92-11.76ZM237.20-10.40C237.12-10.56 237.04-10.80 237.04-11.04L237.20-11.28ZM229.52-9.92L229.12-9.92L229.12-10.16L229.52-10.16ZM237.12-7.44C236.80-8 236.80-8 236.80-8.48C236.80-8.56 236.88-8.64 236.96-8.56C237.04-8.56 237.04-8.64 236.88-8.96C236.96-8.96 236.96-9.04 236.96-9.12C236.96-9.12 236.96-9.28 237.04-9.36L237.20-10.16ZM228.80-6.64L228.80-6.72L229.04-6.80L229.12-6.72ZM239.92-0.16L239.84-0.40L240.00-0.40L240.08-0.16ZM287.12-53.84L285.20-16.08L303.52-16.32C304.48-16.32 305.20-15.60 305.20-14.64L304.96-3.12C304.96-2.08 304.40-1.52 303.36-1.52L272.72 0C272.16 0 271.84-0.16 271.52-0.48C271.20-0.80 271.04-1.12 271.04-1.68L273.52-54.24C273.60-55.28 274.16-55.76 275.20-55.76L285.52-55.52C286.40-55.52 287.12-54.72 287.12-53.84ZM283.28-51.52L283.44-51.44L283.60-51.76L283.44-51.76ZM286.24-37.28L286.24-37.60L286.08-37.60C286.08-37.68 286.00-37.68 285.92-37.68C285.68-37.68 285.60-37.60 285.60-37.36C285.60-37.28 285.60-37.28 285.68-37.28C285.68-37.20 285.76-37.12 285.92-37.12C286.00-37.20 286.08-37.20 286.08-37.20C286.08-37.20 286.16-37.28 286.24-37.28ZM283.76-34.40L283.04-34.48L283.04-34.08L283.52-34.08C283.60-34.08 283.68-34.16 283.76-34.24C283.84-34.40 283.84-34.40 283.76-34.40ZM280.72-30.24L280.72-30.56L280.48-30.56L280.16-30.40C280.32-30.32 280.32-30.24 280.32-30.24C280.32-30.16 280.48-30.08 280.64-30.16C280.72-30.16 280.72-30.24 280.72-30.24ZM278.40-19.04C278.40-19.36 277.52-19.60 277.44-19.60C277.28-19.60 277.04-19.52 276.80-19.28C276.64-19.04 276.56-18.88 276.56-18.72C276.56-18.64 276.56-18.56 276.64-18.40C276.72-18.24 276.96-18.24 277.28-18.24C277.76-18.24 278.40-18.72 278.40-19.04ZM277.92-11.44L277.92-11.84L277.28-11.92L277.28-11.52L277.68-11.52C277.76-11.44 277.76-11.44 277.92-11.44ZM283.20-11.12L282.56-11.20L282.56-11.04L283.20-10.88ZM290.80-11.04L290.24-11.04C290.08-10.88 290.00-10.72 290.00-10.72C290.08-10.56 290.24-10.48 290.64-10.48C290.88-10.48 291.04-10.72 291.04-10.80ZM287.04-9.92C286.88-9.84 286.80-9.76 286.72-9.60C286.80-9.52 286.88-9.52 286.96-9.52L287.20-9.52L287.20-9.68C287.28-9.68 287.28-9.68 287.36-9.76L287.36-9.84C287.44-9.84 287.44-9.92 287.52-9.92ZM285.76-9.60C285.60-9.68 285.52-9.76 285.44-9.76L285.44-9.52C285.44-9.44 285.52-9.36 285.60-9.28C285.84-9.28 285.92-9.52 285.76-9.60ZM288.72-9.76L288.64-9.52L289.12-9.36L289.28-9.60ZM279.68-8.96L279.68-9.28C279.60-9.28 279.52-9.28 279.52-9.36C279.44-9.36 279.36-9.44 279.36-9.44C279.12-9.44 279.04-9.28 279.04-9.12C279.04-8.96 279.04-8.96 279.12-8.96L279.36-8.80C279.36-8.88 279.52-8.96 279.68-8.96ZM281.44-8L281.44-8.56L281.28-8.56C281.20-8.64 281.12-8.64 281.04-8.64C280.96-8.40 280.96-8.16 281.04-7.84C281.28-8 281.36-8 281.44-8ZM289.12-8.56L288.64-8.40C288.32-8.32 288.24-8.24 288.24-8.08C288.24-7.92 288.32-7.52 288.88-7.52C289.04-7.52 289.84-7.68 289.84-8.08C289.84-8.08 289.52-8.56 289.12-8.56ZM281.04-7.12L281.36-7.36C281.28-7.36 281.20-7.36 281.20-7.52C281.20-7.68 281.04-7.76 280.88-7.68C280.80-7.60 280.72-7.60 280.64-7.60C280.64-7.52 280.80-7.52 280.88-7.36C280.96-7.36 280.96-7.28 280.96-7.20C280.96-7.20 281.04-7.20 281.04-7.12ZM289.20-6.08L289.36-6.24C289.28-6.32 289.28-6.32 289.20-6.32L289.20-6.40L288.88-6.40C288.72-6.32 288.64-6.24 288.64-6.16ZM276.00-5.92L276.96-5.76L277.28-6.08L277.12-6.16C277.04-6.16 276.96-6.24 276.80-6.24C276.48-6.24 276.08-6 276.00-5.92ZM275.44-5.92L275.52-5.76L275.68-5.84L275.60-5.92ZM302.16-5.36C302.40-5.44 302.24-5.68 302.16-5.68C302.08-5.68 302.00-5.60 302.00-5.44C302.00-5.28 302.08-5.28 302.16-5.36ZM282.48-5.12L282.48-5.44C282.40-5.44 282.40-5.44 282.32-5.52L281.92-5.52C281.92-5.52 281.92-5.44 281.84-5.44C281.76-5.44 281.76-5.36 281.76-5.28C281.76-5.12 281.76-5.04 281.84-5.04C281.92-5.04 282.00-4.96 282.08-4.88C282.08-4.96 282.16-5.04 282.24-5.04C282.32-5.04 282.40-5.04 282.48-5.12ZM290.96-4.56L290.96-4.80C290.96-4.80 290.88-4.88 290.64-4.96C290.56-5.04 290.48-5.12 290.40-5.12C290.08-5.12 289.76-4.88 289.68-4.72L289.68-4.48L290.00-4.48C290.16-4.48 290.32-4.56 290.40-4.48C290.56-4.48 290.72-4.48 290.96-4.56ZM276.00-4.88L276.00-4.72L276.40-4.88L276.32-4.96ZM284.48-4.72L284.16-4.72C284.16-4.72 284.00-4.80 283.84-4.80C283.84-4.64 283.76-4.64 283.84-4.64L283.84-4.48C284.00-4.56 284.16-4.56 284.24-4.56C284.40-4.56 284.48-4.64 284.48-4.72ZM282.40-4.32L282.48-4.40C282.48-4.40 282.32-4.48 282.16-4.48L282.16-4.24C282.24-4.24 282.32-4.24 282.40-4.32ZM324.72-13.52C329.76-13.52 330.88-16.48 331.44-19.76C331.52-20.24 331.68-20.80 331.68-21.52C331.76-22.16 331.84-23.12 331.92-24.56C332.16-27.44 332.32-30.72 332.48-34.32L332.48-34.40L333.44-53.44C333.52-54.48 334.00-54.96 335.04-54.96L344.88-54.96C345.76-54.96 346.48-54.16 346.48-53.28L345.76-34L345.76-28.72C345.76-24.80 345.44-20.72 344.72-16.88C343.92-13.04 342.40-9.28 339.84-6.32C335.44-1.36 329.12 0.16 322.72 0C319.12-0.08 314.56-0.64 311.84-3.20C309.12-5.68 308.00-9.44 307.60-13.04C307.20-15.92 307.28-19.04 307.28-22C307.36-26.16 307.68-30.32 308.08-34.48L310.08-53.52C310.16-54.48 310.72-54.96 311.68-54.96L321.52-54.96C322.40-54.96 323.20-54.08 323.12-53.20L321.60-33.92L320.88-23.36C320.40-18.24 320.64-13.52 324.72-13.52ZM344.64-51.92L344.64-52.24C344.64-52.48 344.80-53.36 344.08-53.36C343.52-53.36 343.44-52.32 343.44-52.16L343.44-51.68C343.52-51.52 343.52-51.28 343.52-50.80L343.52-49.84C343.60-49.36 343.60-49.04 343.60-48.88L344.48-48.88C344.40-48.88 344.40-48.88 344.40-48.96C344.40-49.04 344.32-49.04 344.32-49.04C344.32-49.52 344.40-50 344.56-50.80C344.64-51.44 344.64-51.84 344.64-51.92ZM310.40-42.96L310.32-40.08C310.32-40 310.32-40 310.40-39.92C310.48-39.92 310.56-39.84 310.56-39.76C310.64-39.76 310.80-39.84 310.96-40.08C311.12-40.40 311.20-40.72 311.20-41.04C311.04-40.88 310.96-40.88 310.88-40.88C310.88-40.96 310.80-40.96 310.72-40.96L310.72-41.12C310.88-41.20 311.12-41.44 311.28-41.68L311.76-51.84L311.36-51.84C311.20-51.84 311.12-51.76 311.04-51.68C311.04-51.60 310.88-51.60 310.64-51.60C311.04-51.36 311.04-51.28 311.20-50.72L311.20-50.16C311.20-49.92 311.04-49.76 310.88-49.60C310.88-49.60 310.96-49.28 310.88-49.20C310.88-49.12 310.80-49.04 310.72-48.96L310.64-47.92C310.56-47.84 310.48-47.76 310.48-47.68C310.48-47.60 310.56-47.52 310.56-47.44C310.64-47.36 310.72-47.28 310.72-47.20C310.64-46.80 310.56-46.56 310.48-46.32L310.32-45.76C310.32-45.68 310.40-45.52 310.48-45.36C310.56-45.20 310.64-45.04 310.64-44.96C310.64-44.72 310.72-44.56 310.72-44.40C310.80-44.08 310.80-43.92 310.80-43.92C310.80-43.84 310.72-43.68 310.64-43.44C310.48-43.28 310.40-43.12 310.40-42.96ZM310.88-33.04L310.88-34C310.56-33.92 310.40-33.92 310.32-33.92C310.16-33.92 310.08-33.84 310.00-33.84L309.92-33.52C310.08-33.36 310.32-33.12 310.88-33.04ZM336.16-33.44C336.00-33.44 335.84-33.52 335.68-33.52L335.68-33.28C335.68-33.20 335.76-33.12 335.84-33.12C335.84-33.12 335.92-33.12 335.92-33.20C336.00-33.20 336.00-33.36 336.16-33.44ZM310.72-30.88C310.24-30.64 309.84-30.40 309.76-30.16C309.84-30 309.92-29.92 310.16-29.92C310.80-29.92 310.72-30.48 310.72-30.88ZM338.16-25.60L337.60-25.60L337.44-25.28L338.08-25.28C338.24-25.36 338.24-25.44 338.16-25.60ZM336.64-23.20C336.56-23.28 336.48-23.28 336.32-23.28L336.16-23.28C336.16-23.20 336.08-23.20 336.00-23.20C336.16-23.12 336.24-23.04 336.24-22.96C336.32-22.96 336.40-22.96 336.48-23.04ZM335.20-17.04L335.20-17.20L334.96-17.04L334.96-16.88ZM336.24-15.92L336.32-16.24L336.08-16.24L336.00-15.92ZM330.96-13.68L330.40-13.68L330.24-13.36L330.96-13.36C331.04-13.44 331.04-13.52 330.96-13.68ZM326.08-12.64C326.00-12.64 325.92-12.72 325.76-12.72C325.52-12.72 325.12-12.80 324.40-12.80C324.24-12.64 324.16-12.56 324.16-12.48C324.40-11.84 324.80-12 325.20-12C325.68-12 325.76-12 326.08-12.64ZM328.48-12.64L328.24-12.72L328.16-12.48L328.32-12.40ZM328.40-11.28L328.16-11.28L328.08-9.84L328.16-9.84ZM322.80-10.16L323.68-10.24C323.52-10.64 323.12-10.80 323.04-10.88C322.88-10.72 322.72-10.64 322.72-10.48C322.80-10.32 322.80-10.32 322.80-10.16ZM362.40-11.44C366.40-10 369.52-11.12 369.52-14.48C369.52-16.56 368.56-18 367.04-19.12C365.52-20.32 363.20-21.68 361.76-22.56L360.16-23.52C360.08-23.52 360.08-23.60 360.00-23.60C359.36-23.92 357.76-25.20 355.28-27.28C355.28-27.28 355.20-27.28 355.20-27.36C353.76-28.72 352.80-30.40 352.24-32.72C351.12-37.60 351.92-42.32 354.64-46.88C357.28-51.52 361.52-54.24 367.44-54.96C372.64-55.60 378.88-55.36 382.48-50.88C383.84-49.20 384.40-46.88 384.56-44.72C384.64-44.08 384.72-43.12 384.72-41.84C384.72-40.16 384.64-38.72 384.56-37.44C384.56-36.40 384.00-35.92 382.96-35.92L373.68-35.92C372.64-35.92 372.08-36.48 372.08-37.52C372.08-39.28 372.00-41.20 371.84-43.20C371.68-44.08 371.36-44.64 370.72-44.72L370.64-44.72C369.12-44.96 368.00-44.24 367.36-42.64C365.92-39.68 366.56-36.88 368.80-34.88C369.84-33.84 370.96-33.04 372.00-32.40L374.48-30.88C380.64-27.12 385.12-21.84 384.32-14.24L384.32-14.16C383.20-8.32 380.32-3.60 375.28-1.60C371.36-0.08 367.28 0.16 363.20-0.24C358.72-0.72 353.60-3.12 349.76-5.20C348.96-5.68 348.64-6.40 349.12-7.36L352.64-14.40C352.96-15.20 354.00-15.60 354.88-15.12C357.28-13.68 359.84-12.40 362.40-11.44ZM375.68-45.68L375.68-45.84L375.36-45.84L375.36-45.68ZM377.60-43.28C377.60-43.28 377.52-43.28 377.44-43.36C377.44-43.36 377.36-43.36 377.36-43.44C377.36-43.36 377.28-43.28 377.28-43.28C377.28-43.28 377.28-43.20 377.20-43.20C377.12-42.96 377.36-42.96 377.44-43.12ZM375.60-40.08C375.36-40.08 375.20-40 375.20-39.76L375.60-39.76C375.68-39.76 375.68-39.84 375.68-39.92C375.68-40 375.60-40.08 375.60-40.08ZM373.76-26C373.76-26 373.76-26.08 373.84-26.16C373.84-26.24 373.92-26.32 373.76-26.56L373.28-26.56C373.04-26.08 373.28-25.68 373.28-25.60L373.92-25.60C373.92-25.76 373.84-25.92 373.76-26ZM371.04-26.32L370.32-26.32L370.32-26L371.04-26ZM374.08-25.60C373.92-25.60 373.76-25.60 373.60-25.52C373.60-25.44 373.76-25.28 373.92-25.04C374.00-25.04 374.16-25.20 374.56-25.36L374.56-25.44C374.64-25.44 374.64-25.52 374.72-25.52C374.56-25.52 374.48-25.60 374.40-25.60ZM372.48-22.80L372.32-22.88L372.16-23.04L372.16-22.48L372.32-22.48L372.48-22.40C372.56-22.40 372.64-22.48 372.64-22.48C372.64-22.64 372.64-22.64 372.48-22.80ZM376.96-21.76L376.64-22.08C376.32-21.92 376.16-21.76 376.16-21.52L376.64-21.52L376.80-21.60L376.96-21.60ZM376.32-20.48L375.60-20.56L375.60-20.32L376.32-20.16ZM380.00-18.80L379.92-18.88C379.84-18.88 379.84-18.88 379.84-18.96L379.12-18.96L378.96-18.56C379.04-18.32 379.28-18.16 379.60-18.16C379.92-18.16 380.08-18.32 380.08-18.64C380.08-18.80 380.08-18.80 380.00-18.80ZM376.32-18.88L376.08-18.64L376.40-18.48L376.64-18.80ZM377.60-16.56C377.44-16.64 377.36-16.72 377.28-16.72L376.96-16.72L376.80-16.16C376.88-16.08 376.96-16.08 376.96-16.08L377.04-16.08L377.12-16L377.68-16C377.68-16.08 377.68-16.08 377.76-16.08L377.76-16.24C377.84-16.24 377.84-16.32 377.84-16.40C377.68-16.40 377.60-16.48 377.60-16.56ZM380.72-16.40L380.40-16.40C380.32-16.32 380.24-16.24 380.32-16.08L380.32-15.76C380.48-15.76 380.56-15.84 380.72-16C380.80-16 380.80-16.08 380.88-16.08C380.88-16.08 380.96-16.08 381.12-16.24C380.96-16.32 380.88-16.32 380.88-16.32C380.80-16.32 380.72-16.40 380.72-16.40ZM379.04-15.28L378.96-15.68C378.80-15.68 378.72-15.68 378.64-15.60L378.48-15.52C378.08-15.52 377.84-15.44 377.76-15.44C377.68-15.04 378.08-14.88 378.40-14.88L378.72-15.04ZM378.00-13.60C377.92-13.52 377.84-13.44 377.84-13.36L377.68-13.28C377.60-13.20 377.52-13.20 377.44-13.20L377.36-13.20C377.28-13.20 377.12-13.20 376.96-13.28C376.72-13.36 376.48-13.36 376.32-13.36L376.08-13.36L376.08-13.04L376.16-12.96C376.16-12.88 376.24-12.80 376.32-12.72C377.12-12.64 377.44-12.56 377.36-12.56L377.60-12.56C377.76-12.40 377.92-12.40 378.00-12.40L378.24-12.40L378.40-12.48L378.56-12.48L378.56-12.64C378.64-12.72 378.64-12.80 378.64-12.88C378.64-13.04 378.40-13.20 378.00-13.60ZM380.56-13.28L380.00-13.28C380.00-13.12 379.92-12.96 379.76-12.80L380.40-12.80L380.40-12.96C380.48-13.12 380.56-13.20 380.56-13.28ZM379.92-12.72L379.52-12.72L379.52-12.24L379.92-12.24ZM377.76-12.16L376.96-12.16C377.12-12.32 377.04-12.24 376.64-12C376.56-11.92 376.48-11.92 376.32-11.92C376.00-11.76 375.84-11.60 375.84-11.44L375.84-11.28C376.00-11.12 376.16-11.12 376.48-11.12L376.80-11.12L377.36-11.44C377.60-11.60 377.76-11.76 377.76-11.84ZM379.68-11.52C379.36-11.44 379.28-11.28 379.28-10.96C379.28-10.88 379.36-10.64 379.60-10.32L379.92-10.56C380.16-10.56 380.32-10.72 380.32-10.96C380.32-11.04 380.24-11.12 380.08-11.28C379.92-11.36 379.76-11.44 379.68-11.52ZM377.84-10.64L377.84-10.96C377.84-11.12 377.84-11.20 377.76-11.20L377.28-11.20L376.96-10.96L376.96-10.64C377.28-10.56 377.52-10.56 377.84-10.64ZM362.00-10.80L361.52-10.80L361.52-10.56L362.00-10.56ZM376.08-9.68C376.08-9.76 376.00-9.76 376.00-9.84C376.00-9.84 376.00-9.92 375.84-9.92C375.76-9.84 375.68-9.76 375.68-9.60L375.68-9.28C375.76-9.28 375.84-9.28 375.84-9.36L376.00-9.36L376.16-9.52C376.16-9.60 376.08-9.60 376.08-9.68ZM373.44-8.56C373.36-8.56 373.28-8.56 373.28-8.48L373.28-8.40C373.20-8.40 373.12-8.40 373.12-8.32C373.12-8.32 373.12-8.24 372.96-8.24C373.12-8.16 373.36-8.08 373.60-8.08C373.60-8.32 373.60-8.48 373.44-8.56ZM377.84-8.40L377.84-8.56L376.96-8.40C377.44-8.24 377.68-8.16 377.92-8.16C377.92-8.24 377.92-8.32 377.84-8.40ZM363.04-8.48L362.80-8.24L363.12-8.08L363.36-8.40ZM373.92-7.60L373.76-7.12C374.00-7.12 374.08-7.12 374.08-7.04C374.48-7.04 374.72-7.12 374.72-7.44C374.56-7.44 374.40-7.52 374.32-7.52C374.24-7.60 374.08-7.60 373.92-7.60ZM372.64-7.44L372.32-7.44L372.32-7.04L372.64-7.04ZM365.60-5.84L365.04-5.84L365.04-5.60L365.60-5.60ZM374.40-5.84L373.76-5.84C373.60-5.84 373.60-5.76 373.60-5.60C373.60-5.52 373.60-5.44 373.76-5.36Z" fill="#d68048" fontsize="80" transform="matrix(1,0,0,1,75.03999999999998,317.9943773488509)"></path></svg>